<svg width="394" height="103" viewBox="0 0 394 103" fill="none" xmlns="http://www.w3.org/2000/svg">
<path d="M4.54545 39V9.90909H13.0682C14.697 9.90909 16.1364 10.2737 17.3864 11.0028C18.6458 11.732 19.6307 12.7358 20.3409 14.0142C21.0606 15.2926 21.4205 16.7652 21.4205 18.4318C21.4205 20.0795 21.0606 21.5426 20.3409 22.821C19.6307 24.09 18.6458 25.089 17.3864 25.8182C16.1364 26.5379 14.697 26.8977 13.0682 26.8977H5V25.9886H13.0682C14.5265 25.9886 15.8144 25.6667 16.9318 25.0227C18.0492 24.3788 18.9252 23.4886 19.5597 22.3523C20.1941 21.2159 20.5114 19.9091 20.5114 18.4318C20.5114 16.9451 20.1941 15.6288 19.5597 14.483C18.9252 13.3371 18.0492 12.4422 16.9318 11.7983C15.8144 11.1449 14.5265 10.8182 13.0682 10.8182H5.45455V39H4.54545ZM28.8033 39V9.90909H44.3146V10.8182H29.7124V24H43.4624V24.9091H29.7124V38.0909H44.7124V39H28.8033ZM49.8899 39H48.924L59.3217 9.90909H60.5717L70.9695 39H70.0036L60.0036 11.0455H59.8899L49.8899 39ZM53.1854 28.2614H66.7081V29.1705H53.1854V28.2614ZM76.8111 9.90909H77.6065L89.4815 37.6364H89.5952L101.47 9.90909H102.266V39H101.357V12.75H101.243L89.9929 39H89.0838L77.8338 12.75H77.7202V39H76.8111V9.90909ZM109.07 39H108.104L118.501 9.90909H119.751L130.149 39H129.183L119.183 11.0455H119.07L109.07 39ZM112.365 28.2614H125.888V29.1705H112.365V28.2614Z" fill="#C6D9E3"/>
<path d="M1.51705 68V50.5455H8.40341C9.72727 50.5455 10.8551 50.7983 11.7869 51.304C12.7188 51.804 13.429 52.5 13.9176 53.392C14.4119 54.2784 14.6591 55.3011 14.6591 56.4602C14.6591 57.6193 14.4091 58.642 13.9091 59.5284C13.4091 60.4148 12.6847 61.1051 11.7358 61.5994C10.7926 62.0937 9.65057 62.3409 8.30966 62.3409H3.92045V59.3835H7.71307C8.4233 59.3835 9.00852 59.2614 9.46875 59.017C9.93466 58.767 10.2813 58.4233 10.5085 57.9858C10.7415 57.5426 10.858 57.0341 10.858 56.4602C10.858 55.8807 10.7415 55.375 10.5085 54.9432C10.2813 54.5057 9.93466 54.1676 9.46875 53.929C9.00284 53.6847 8.41193 53.5625 7.69602 53.5625H5.20739V68H1.51705ZM16.9879 68V54.9091H20.5078V57.1932H20.6442C20.8828 56.3807 21.2834 55.767 21.8459 55.3523C22.4084 54.9318 23.0561 54.7216 23.7891 54.7216C23.9709 54.7216 24.1669 54.733 24.3771 54.7557C24.5874 54.7784 24.772 54.8097 24.9311 54.8494V58.071C24.7607 58.0199 24.5249 57.9744 24.2237 57.9347C23.9226 57.8949 23.647 57.875 23.397 57.875C22.8629 57.875 22.3857 57.9915 21.9652 58.2244C21.5504 58.4517 21.2209 58.7699 20.9766 59.179C20.7379 59.5881 20.6186 60.0597 20.6186 60.5938V68H16.9879ZM32.1136 68.2557C30.7898 68.2557 29.6449 67.9744 28.679 67.4119C27.7188 66.8437 26.9773 66.054 26.4545 65.0426C25.9318 64.0256 25.6705 62.8466 25.6705 61.5057C25.6705 60.1534 25.9318 58.9716 26.4545 57.9602C26.9773 56.9432 27.7188 56.1534 28.679 55.5909C29.6449 55.0227 30.7898 54.7386 32.1136 54.7386C33.4375 54.7386 34.5795 55.0227 35.5398 55.5909C36.5057 56.1534 37.25 56.9432 37.7727 57.9602C38.2955 58.9716 38.5568 60.1534 38.5568 61.5057C38.5568 62.8466 38.2955 64.0256 37.7727 65.0426C37.25 66.054 36.5057 66.8437 35.5398 67.4119C34.5795 67.9744 33.4375 68.2557 32.1136 68.2557ZM32.1307 65.4432C32.733 65.4432 33.2358 65.2727 33.6392 64.9318C34.0426 64.5852 34.3466 64.1136 34.5511 63.517C34.7614 62.9205 34.8665 62.2415 34.8665 61.4801C34.8665 60.7188 34.7614 60.0398 34.5511 59.4432C34.3466 58.8466 34.0426 58.375 33.6392 58.0284C33.2358 57.6818 32.733 57.5085 32.1307 57.5085C31.5227 57.5085 31.0114 57.6818 30.5966 58.0284C30.1875 58.375 29.8778 58.8466 29.6676 59.4432C29.4631 60.0398 29.3608 60.7188 29.3608 61.4801C29.3608 62.2415 29.4631 62.9205 29.6676 63.517C29.8778 64.1136 30.1875 64.5852 30.5966 64.9318C31.0114 65.2727 31.5227 65.4432 32.1307 65.4432ZM46.8153 73.1818C45.6392 73.1818 44.6307 73.0199 43.7898 72.696C42.9545 72.3778 42.2898 71.9432 41.7955 71.392C41.3011 70.8409 40.9801 70.2216 40.8324 69.5341L44.1903 69.0824C44.2926 69.3438 44.4545 69.5881 44.6761 69.8153C44.8977 70.0426 45.1903 70.2244 45.554 70.3608C45.9233 70.5028 46.3722 70.5739 46.9006 70.5739C47.6903 70.5739 48.3409 70.3807 48.8523 69.9943C49.3693 69.6136 49.6278 68.9744 49.6278 68.0767V65.6818H49.4744C49.3153 66.0455 49.0767 66.3892 48.7585 66.7131C48.4403 67.0369 48.0312 67.3011 47.5312 67.5057C47.0312 67.7102 46.4347 67.8125 45.7415 67.8125C44.7585 67.8125 43.8636 67.5852 43.0568 67.1307C42.2557 66.6705 41.6165 65.9687 41.1392 65.0256C40.6676 64.0767 40.4318 62.8778 40.4318 61.429C40.4318 59.946 40.6733 58.7074 41.1562 57.7131C41.6392 56.7187 42.2813 55.9744 43.0824 55.4801C43.8892 54.9858 44.7727 54.7386 45.733 54.7386C46.4659 54.7386 47.0795 54.8636 47.5739 55.1136C48.0682 55.358 48.4659 55.6648 48.767 56.0341C49.0739 56.3977 49.3097 56.7557 49.4744 57.108H49.6108V54.9091H53.2159V68.1278C53.2159 69.2415 52.9432 70.1733 52.3977 70.9233C51.8523 71.6733 51.0966 72.2358 50.1307 72.6108C49.1705 72.9915 48.0653 73.1818 46.8153 73.1818ZM46.892 65.0852C47.4773 65.0852 47.9716 64.9403 48.375 64.6506C48.7841 64.3551 49.0966 63.9347 49.3125 63.3892C49.5341 62.8381 49.6449 62.179 49.6449 61.4119C49.6449 60.6449 49.5369 59.9801 49.321 59.4176C49.1051 58.8494 48.7926 58.4091 48.3835 58.0966C47.9744 57.7841 47.4773 57.6278 46.892 57.6278C46.2955 57.6278 45.7926 57.7898 45.3835 58.1136C44.9744 58.4318 44.6648 58.875 44.4545 59.4432C44.2443 60.0114 44.1392 60.6676 44.1392 61.4119C44.1392 62.1676 44.2443 62.821 44.4545 63.3722C44.6705 63.9176 44.9801 64.3409 45.3835 64.642C45.7926 64.9375 46.2955 65.0852 46.892 65.0852ZM56.1051 68V54.9091H59.625V57.1932H59.7614C60 56.3807 60.4006 55.767 60.9631 55.3523C61.5256 54.9318 62.1733 54.7216 62.9062 54.7216C63.0881 54.7216 63.2841 54.733 63.4943 54.7557C63.7045 54.7784 63.8892 54.8097 64.0483 54.8494V58.071C63.8778 58.0199 63.642 57.9744 63.3409 57.9347C63.0398 57.8949 62.7642 57.875 62.5142 57.875C61.9801 57.875 61.5028 57.9915 61.0824 58.2244C60.6676 58.4517 60.3381 58.7699 60.0938 59.179C59.8551 59.5881 59.7358 60.0597 59.7358 60.5938V68H56.1051ZM69.2834 68.2472C68.4482 68.2472 67.7038 68.1023 67.0504 67.8125C66.397 67.517 65.88 67.0824 65.4993 66.5085C65.1243 65.929 64.9368 65.2074 64.9368 64.3438C64.9368 63.6165 65.0703 63.0057 65.3374 62.5114C65.6044 62.017 65.968 61.6193 66.4283 61.3182C66.8885 61.017 67.4112 60.7898 67.9964 60.6364C68.5874 60.483 69.2067 60.375 69.8544 60.3125C70.6158 60.233 71.2294 60.1591 71.6953 60.0909C72.1612 60.017 72.4993 59.9091 72.7095 59.767C72.9197 59.625 73.0249 59.4148 73.0249 59.1364V59.0852C73.0249 58.5455 72.8544 58.1278 72.5135 57.8324C72.1783 57.5369 71.701 57.3892 71.0817 57.3892C70.4283 57.3892 69.9084 57.5341 69.522 57.8239C69.1357 58.108 68.88 58.4659 68.755 58.8977L65.397 58.625C65.5675 57.8295 65.9027 57.142 66.4027 56.5625C66.9027 55.9773 67.5476 55.5284 68.3374 55.2159C69.1328 54.8977 70.0533 54.7386 71.0987 54.7386C71.826 54.7386 72.522 54.8239 73.1868 54.9943C73.8572 55.1648 74.451 55.429 74.968 55.7869C75.4908 56.1449 75.9027 56.6051 76.2038 57.1676C76.505 57.7244 76.6555 58.392 76.6555 59.1705V68H73.2124V66.1847H73.1101C72.8999 66.5938 72.6186 66.9545 72.2663 67.267C71.9141 67.5739 71.4908 67.8153 70.9964 67.9915C70.5021 68.1619 69.9311 68.2472 69.2834 68.2472ZM70.3232 65.7415C70.8572 65.7415 71.3288 65.6364 71.7379 65.4261C72.147 65.2102 72.468 64.9205 72.701 64.5568C72.9339 64.1932 73.0504 63.7812 73.0504 63.321V61.9318C72.9368 62.0057 72.7805 62.0739 72.5817 62.1364C72.3885 62.1932 72.1697 62.2472 71.9254 62.2983C71.6811 62.3437 71.4368 62.3864 71.1925 62.4261C70.9482 62.4602 70.7266 62.4915 70.5277 62.5199C70.1016 62.5824 69.7294 62.6818 69.4112 62.8182C69.093 62.9545 68.8459 63.1392 68.6697 63.3722C68.4936 63.5994 68.4055 63.8835 68.4055 64.2244C68.4055 64.7188 68.5845 65.0966 68.9425 65.358C69.3061 65.6136 69.7663 65.7415 70.3232 65.7415ZM79.4723 68V54.9091H82.9325V57.2188H83.0859C83.3587 56.4517 83.8132 55.8466 84.4496 55.4034C85.0859 54.9602 85.8473 54.7386 86.7337 54.7386C87.6314 54.7386 88.3956 54.9631 89.0263 55.4119C89.657 55.8551 90.0774 56.4574 90.2876 57.2188H90.424C90.6911 56.4688 91.174 55.8693 91.8729 55.4205C92.5774 54.9659 93.4098 54.7386 94.37 54.7386C95.5916 54.7386 96.5831 55.1278 97.3445 55.9062C98.1115 56.679 98.495 57.7756 98.495 59.196V68H94.8729V59.9119C94.8729 59.1847 94.6797 58.6392 94.2933 58.2756C93.907 57.9119 93.424 57.7301 92.8445 57.7301C92.1854 57.7301 91.6712 57.9403 91.3018 58.3608C90.9325 58.7756 90.7479 59.3239 90.7479 60.0057V68H87.228V59.8352C87.228 59.1932 87.0433 58.6818 86.674 58.3011C86.3104 57.9205 85.8303 57.7301 85.2337 57.7301C84.8303 57.7301 84.4666 57.8324 84.1428 58.0369C83.8246 58.2358 83.5717 58.517 83.3842 58.8807C83.1967 59.2386 83.103 59.6591 83.103 60.142V68H79.4723ZM105.096 68.2472C104.261 68.2472 103.516 68.1023 102.863 67.8125C102.21 67.517 101.692 67.0824 101.312 66.5085C100.937 65.929 100.749 65.2074 100.749 64.3438C100.749 63.6165 100.883 63.0057 101.15 62.5114C101.417 62.017 101.781 61.6193 102.241 61.3182C102.701 61.017 103.224 60.7898 103.809 60.6364C104.4 60.483 105.019 60.375 105.667 60.3125C106.428 60.233 107.042 60.1591 107.508 60.0909C107.974 60.017 108.312 59.9091 108.522 59.767C108.732 59.625 108.837 59.4148 108.837 59.1364V59.0852C108.837 58.5455 108.667 58.1278 108.326 57.8324C107.991 57.5369 107.513 57.3892 106.894 57.3892C106.241 57.3892 105.721 57.5341 105.335 57.8239C104.948 58.108 104.692 58.4659 104.567 58.8977L101.21 58.625C101.38 57.8295 101.715 57.142 102.215 56.5625C102.715 55.9773 103.36 55.5284 104.15 55.2159C104.945 54.8977 105.866 54.7386 106.911 54.7386C107.638 54.7386 108.335 54.8239 108.999 54.9943C109.67 55.1648 110.263 55.429 110.781 55.7869C111.303 56.1449 111.715 56.6051 112.016 57.1676C112.317 57.7244 112.468 58.392 112.468 59.1705V68H109.025V66.1847H108.923C108.712 66.5938 108.431 66.9545 108.079 67.267C107.727 67.5739 107.303 67.8153 106.809 67.9915C106.315 68.1619 105.744 68.2472 105.096 68.2472ZM106.136 65.7415C106.67 65.7415 107.141 65.6364 107.55 65.4261C107.96 65.2102 108.281 64.9205 108.513 64.5568C108.746 64.1932 108.863 63.7812 108.863 63.321V61.9318C108.749 62.0057 108.593 62.0739 108.394 62.1364C108.201 62.1932 107.982 62.2472 107.738 62.2983C107.494 62.3437 107.249 62.3864 107.005 62.4261C106.761 62.4602 106.539 62.4915 106.34 62.5199C105.914 62.5824 105.542 62.6818 105.224 62.8182C104.906 62.9545 104.658 63.1392 104.482 63.3722C104.306 63.5994 104.218 63.8835 104.218 64.2244C104.218 64.7188 104.397 65.0966 104.755 65.358C105.119 65.6136 105.579 65.7415 106.136 65.7415ZM126.805 68.2557C125.459 68.2557 124.3 67.983 123.328 67.4375C122.362 66.8864 121.618 66.108 121.095 65.1023C120.572 64.0909 120.311 62.8949 120.311 61.5142C120.311 60.1676 120.572 58.9858 121.095 57.9688C121.618 56.9517 122.354 56.1591 123.303 55.5909C124.257 55.0227 125.376 54.7386 126.661 54.7386C127.524 54.7386 128.328 54.8778 129.072 55.1562C129.822 55.429 130.476 55.8409 131.033 56.392C131.595 56.9432 132.033 57.6364 132.345 58.4716C132.658 59.3011 132.814 60.2727 132.814 61.3864V62.3835H121.76V60.1335H129.396C129.396 59.6108 129.283 59.1477 129.055 58.7443C128.828 58.3409 128.513 58.0256 128.109 57.7983C127.712 57.5653 127.249 57.4489 126.72 57.4489C126.169 57.4489 125.68 57.5767 125.254 57.8324C124.834 58.0824 124.504 58.4205 124.266 58.8466C124.027 59.267 123.905 59.7358 123.899 60.2528V62.392C123.899 63.0398 124.018 63.5994 124.257 64.071C124.501 64.5426 124.845 64.9062 125.288 65.1619C125.732 65.4176 126.257 65.5455 126.865 65.5455C127.268 65.5455 127.638 65.4886 127.973 65.375C128.308 65.2614 128.595 65.0909 128.834 64.8636C129.072 64.6364 129.254 64.358 129.379 64.0284L132.737 64.25C132.567 65.0568 132.217 65.7614 131.689 66.3636C131.166 66.9602 130.49 67.4261 129.661 67.7614C128.837 68.0909 127.885 68.2557 126.805 68.2557ZM146.075 58.642L142.751 58.8466C142.695 58.5625 142.572 58.3068 142.385 58.0795C142.197 57.8466 141.95 57.6619 141.643 57.5256C141.342 57.3835 140.982 57.3125 140.561 57.3125C139.999 57.3125 139.524 57.4318 139.138 57.6705C138.751 57.9034 138.558 58.2159 138.558 58.608C138.558 58.9205 138.683 59.1847 138.933 59.4006C139.183 59.6165 139.612 59.7898 140.22 59.9205L142.589 60.3977C143.862 60.6591 144.811 61.0795 145.436 61.6591C146.061 62.2386 146.374 63 146.374 63.9432C146.374 64.8011 146.121 65.554 145.615 66.2017C145.115 66.8494 144.428 67.3551 143.553 67.7188C142.683 68.0767 141.68 68.2557 140.544 68.2557C138.811 68.2557 137.43 67.8949 136.402 67.1733C135.379 66.446 134.78 65.4574 134.604 64.2074L138.175 64.0199C138.283 64.5483 138.544 64.9517 138.959 65.2301C139.374 65.5028 139.905 65.6392 140.553 65.6392C141.189 65.6392 141.7 65.517 142.087 65.2727C142.479 65.0227 142.678 64.7017 142.683 64.3097C142.678 63.9801 142.538 63.7102 142.266 63.5C141.993 63.2841 141.572 63.1193 141.004 63.0057L138.737 62.554C137.459 62.2983 136.507 61.8551 135.882 61.2244C135.263 60.5937 134.953 59.7898 134.953 58.8125C134.953 57.9716 135.18 57.2472 135.635 56.6392C136.095 56.0312 136.74 55.5625 137.57 55.233C138.405 54.9034 139.382 54.7386 140.501 54.7386C142.155 54.7386 143.456 55.0881 144.405 55.7869C145.359 56.4858 145.916 57.4375 146.075 58.642ZM148.66 72.9091V54.9091H152.239V57.108H152.401C152.56 56.7557 152.79 56.3977 153.092 56.0341C153.398 55.6648 153.796 55.358 154.285 55.1136C154.779 54.8636 155.393 54.7386 156.126 54.7386C157.08 54.7386 157.961 54.9886 158.768 55.4886C159.575 55.983 160.219 56.7301 160.702 57.7301C161.185 58.7244 161.427 59.9716 161.427 61.4716C161.427 62.9318 161.191 64.1648 160.719 65.1705C160.254 66.1705 159.617 66.929 158.81 67.446C158.009 67.9574 157.112 68.2131 156.117 68.2131C155.413 68.2131 154.813 68.0966 154.319 67.8636C153.83 67.6307 153.43 67.3381 153.117 66.9858C152.805 66.6278 152.566 66.267 152.401 65.9034H152.29V72.9091H148.66ZM152.214 61.4545C152.214 62.233 152.322 62.9119 152.538 63.4915C152.754 64.071 153.066 64.5227 153.475 64.8466C153.884 65.1648 154.381 65.3239 154.967 65.3239C155.558 65.3239 156.058 65.1619 156.467 64.8381C156.876 64.5085 157.185 64.054 157.396 63.4744C157.612 62.8892 157.719 62.2159 157.719 61.4545C157.719 60.6989 157.614 60.0341 157.404 59.4602C157.194 58.8864 156.884 58.4375 156.475 58.1136C156.066 57.7898 155.563 57.6278 154.967 57.6278C154.376 57.6278 153.876 57.7841 153.467 58.0966C153.063 58.4091 152.754 58.8523 152.538 59.4261C152.322 60 152.214 60.6761 152.214 61.4545ZM169.813 68.2557C168.467 68.2557 167.308 67.983 166.336 67.4375C165.37 66.8864 164.626 66.108 164.103 65.1023C163.58 64.0909 163.319 62.8949 163.319 61.5142C163.319 60.1676 163.58 58.9858 164.103 57.9688C164.626 56.9517 165.362 56.1591 166.31 55.5909C167.265 55.0227 168.384 54.7386 169.668 54.7386C170.532 54.7386 171.336 54.8778 172.08 55.1562C172.83 55.429 173.484 55.8409 174.04 56.392C174.603 56.9432 175.04 57.6364 175.353 58.4716C175.665 59.3011 175.822 60.2727 175.822 61.3864V62.3835H164.768V60.1335H172.404C172.404 59.6108 172.29 59.1477 172.063 58.7443C171.836 58.3409 171.521 58.0256 171.117 57.7983C170.719 57.5653 170.256 57.4489 169.728 57.4489C169.177 57.4489 168.688 57.5767 168.262 57.8324C167.842 58.0824 167.512 58.4205 167.273 58.8466C167.035 59.267 166.913 59.7358 166.907 60.2528V62.392C166.907 63.0398 167.026 63.5994 167.265 64.071C167.509 64.5426 167.853 64.9062 168.296 65.1619C168.739 65.4176 169.265 65.5455 169.873 65.5455C170.276 65.5455 170.646 65.4886 170.981 65.375C171.316 65.2614 171.603 65.0909 171.842 64.8636C172.08 64.6364 172.262 64.358 172.387 64.0284L175.745 64.25C175.575 65.0568 175.225 65.7614 174.697 66.3636C174.174 66.9602 173.498 67.4261 172.668 67.7614C171.844 68.0909 170.893 68.2557 169.813 68.2557ZM184.106 68.2557C182.765 68.2557 181.612 67.9716 180.646 67.4034C179.685 66.8295 178.947 66.0341 178.43 65.017C177.918 64 177.663 62.8295 177.663 61.5057C177.663 60.1648 177.921 58.9886 178.438 57.9773C178.961 56.9602 179.702 56.1676 180.663 55.5994C181.623 55.0256 182.765 54.7386 184.089 54.7386C185.231 54.7386 186.231 54.946 187.089 55.3608C187.947 55.7756 188.626 56.358 189.126 57.108C189.626 57.858 189.901 58.7386 189.952 59.75H186.526C186.43 59.0966 186.174 58.571 185.759 58.1733C185.35 57.7699 184.813 57.5682 184.148 57.5682C183.586 57.5682 183.094 57.7216 182.674 58.0284C182.259 58.3295 181.935 58.7699 181.702 59.3494C181.469 59.929 181.353 60.6307 181.353 61.4545C181.353 62.2898 181.467 63 181.694 63.5852C181.927 64.1705 182.254 64.6165 182.674 64.9233C183.094 65.2301 183.586 65.3835 184.148 65.3835C184.563 65.3835 184.935 65.2983 185.265 65.1278C185.6 64.9574 185.876 64.7102 186.092 64.3864C186.313 64.0568 186.458 63.6619 186.526 63.2017H189.952C189.896 64.2017 189.623 65.0824 189.134 65.8438C188.651 66.5994 187.984 67.1903 187.131 67.6165C186.279 68.0426 185.271 68.2557 184.106 68.2557ZM192.277 68V54.9091H195.908V68H192.277ZM194.101 53.2216C193.561 53.2216 193.098 53.0426 192.712 52.6847C192.331 52.321 192.141 51.8864 192.141 51.3807C192.141 50.8807 192.331 50.4517 192.712 50.0938C193.098 49.7301 193.561 49.5483 194.101 49.5483C194.641 49.5483 195.101 49.7301 195.482 50.0938C195.868 50.4517 196.061 50.8807 196.061 51.3807C196.061 51.8864 195.868 52.321 195.482 52.6847C195.101 53.0426 194.641 53.2216 194.101 53.2216ZM202.549 68.2472C201.714 68.2472 200.969 68.1023 200.316 67.8125C199.663 67.517 199.146 67.0824 198.765 66.5085C198.39 65.929 198.202 65.2074 198.202 64.3438C198.202 63.6165 198.336 63.0057 198.603 62.5114C198.87 62.017 199.234 61.6193 199.694 61.3182C200.154 61.017 200.677 60.7898 201.262 60.6364C201.853 60.483 202.472 60.375 203.12 60.3125C203.881 60.233 204.495 60.1591 204.961 60.0909C205.427 60.017 205.765 59.9091 205.975 59.767C206.185 59.625 206.29 59.4148 206.29 59.1364V59.0852C206.29 58.5455 206.12 58.1278 205.779 57.8324C205.444 57.5369 204.967 57.3892 204.347 57.3892C203.694 57.3892 203.174 57.5341 202.788 57.8239C202.401 58.108 202.146 58.4659 202.021 58.8977L198.663 58.625C198.833 57.8295 199.168 57.142 199.668 56.5625C200.168 55.9773 200.813 55.5284 201.603 55.2159C202.398 54.8977 203.319 54.7386 204.364 54.7386C205.092 54.7386 205.788 54.8239 206.452 54.9943C207.123 55.1648 207.717 55.429 208.234 55.7869C208.756 56.1449 209.168 56.6051 209.469 57.1676C209.771 57.7244 209.921 58.392 209.921 59.1705V68H206.478V66.1847H206.376C206.165 66.5938 205.884 66.9545 205.532 67.267C205.18 67.5739 204.756 67.8153 204.262 67.9915C203.768 68.1619 203.197 68.2472 202.549 68.2472ZM203.589 65.7415C204.123 65.7415 204.594 65.6364 205.004 65.4261C205.413 65.2102 205.734 64.9205 205.967 64.5568C206.2 64.1932 206.316 63.7812 206.316 63.321V61.9318C206.202 62.0057 206.046 62.0739 205.847 62.1364C205.654 62.1932 205.435 62.2472 205.191 62.2983C204.947 62.3437 204.702 62.3864 204.458 62.4261C204.214 62.4602 203.992 62.4915 203.793 62.5199C203.367 62.5824 202.995 62.6818 202.677 62.8182C202.359 62.9545 202.112 63.1392 201.935 63.3722C201.759 63.5994 201.671 63.8835 201.671 64.2244C201.671 64.7188 201.85 65.0966 202.208 65.358C202.572 65.6136 203.032 65.7415 203.589 65.7415ZM216.369 50.5455V68H212.738V50.5455H216.369ZM229.656 68.2131C228.661 68.2131 227.761 67.9574 226.954 67.446C226.153 66.929 225.516 66.1705 225.045 65.1705C224.579 64.1648 224.346 62.9318 224.346 61.4716C224.346 59.9716 224.587 58.7244 225.07 57.7301C225.553 56.7301 226.195 55.983 226.996 55.4886C227.803 54.9886 228.687 54.7386 229.647 54.7386C230.38 54.7386 230.991 54.8636 231.479 55.1136C231.974 55.358 232.371 55.6648 232.673 56.0341C232.979 56.3977 233.212 56.7557 233.371 57.108H233.482V50.5455H237.104V68H233.525V65.9034H233.371C233.201 66.267 232.96 66.6278 232.647 66.9858C232.34 67.3381 231.94 67.6307 231.445 67.8636C230.957 68.0966 230.36 68.2131 229.656 68.2131ZM230.806 65.3239C231.391 65.3239 231.886 65.1648 232.289 64.8466C232.698 64.5227 233.011 64.071 233.227 63.4915C233.448 62.9119 233.559 62.233 233.559 61.4545C233.559 60.6761 233.451 60 233.235 59.4261C233.019 58.8523 232.707 58.4091 232.298 58.0966C231.888 57.7841 231.391 57.6278 230.806 57.6278C230.21 57.6278 229.707 57.7898 229.298 58.1136C228.888 58.4375 228.579 58.8864 228.369 59.4602C228.158 60.0341 228.053 60.6989 228.053 61.4545C228.053 62.2159 228.158 62.8892 228.369 63.4744C228.585 64.054 228.894 64.5085 229.298 64.8381C229.707 65.1619 230.21 65.3239 230.806 65.3239ZM246.055 68.2557C244.709 68.2557 243.55 67.983 242.578 67.4375C241.612 66.8864 240.868 66.108 240.345 65.1023C239.822 64.0909 239.561 62.8949 239.561 61.5142C239.561 60.1676 239.822 58.9858 240.345 57.9688C240.868 56.9517 241.604 56.1591 242.553 55.5909C243.507 55.0227 244.626 54.7386 245.911 54.7386C246.774 54.7386 247.578 54.8778 248.322 55.1562C249.072 55.429 249.726 55.8409 250.283 56.392C250.845 56.9432 251.283 57.6364 251.595 58.4716C251.908 59.3011 252.064 60.2727 252.064 61.3864V62.3835H241.01V60.1335H248.646C248.646 59.6108 248.533 59.1477 248.305 58.7443C248.078 58.3409 247.763 58.0256 247.359 57.7983C246.962 57.5653 246.499 57.4489 245.97 57.4489C245.419 57.4489 244.93 57.5767 244.504 57.8324C244.084 58.0824 243.754 58.4205 243.516 58.8466C243.277 59.267 243.155 59.7358 243.149 60.2528V62.392C243.149 63.0398 243.268 63.5994 243.507 64.071C243.751 64.5426 244.095 64.9062 244.538 65.1619C244.982 65.4176 245.507 65.5455 246.115 65.5455C246.518 65.5455 246.888 65.4886 247.223 65.375C247.558 65.2614 247.845 65.0909 248.084 64.8636C248.322 64.6364 248.504 64.358 248.629 64.0284L251.987 64.25C251.817 65.0568 251.467 65.7614 250.939 66.3636C250.416 66.9602 249.74 67.4261 248.911 67.7614C248.087 68.0909 247.135 68.2557 246.055 68.2557ZM263.721 68.2472C262.886 68.2472 262.141 68.1023 261.488 67.8125C260.835 67.517 260.317 67.0824 259.937 66.5085C259.562 65.929 259.374 65.2074 259.374 64.3438C259.374 63.6165 259.508 63.0057 259.775 62.5114C260.042 62.017 260.406 61.6193 260.866 61.3182C261.326 61.017 261.849 60.7898 262.434 60.6364C263.025 60.483 263.644 60.375 264.292 60.3125C265.053 60.233 265.667 60.1591 266.133 60.0909C266.599 60.017 266.937 59.9091 267.147 59.767C267.357 59.625 267.462 59.4148 267.462 59.1364V59.0852C267.462 58.5455 267.292 58.1278 266.951 57.8324C266.616 57.5369 266.138 57.3892 265.519 57.3892C264.866 57.3892 264.346 57.5341 263.96 57.8239C263.573 58.108 263.317 58.4659 263.192 58.8977L259.835 58.625C260.005 57.8295 260.34 57.142 260.84 56.5625C261.34 55.9773 261.985 55.5284 262.775 55.2159C263.57 54.8977 264.491 54.7386 265.536 54.7386C266.263 54.7386 266.96 54.8239 267.624 54.9943C268.295 55.1648 268.888 55.429 269.406 55.7869C269.928 56.1449 270.34 56.6051 270.641 57.1676C270.942 57.7244 271.093 58.392 271.093 59.1705V68H267.65V66.1847H267.548C267.337 66.5938 267.056 66.9545 266.704 67.267C266.352 67.5739 265.928 67.8153 265.434 67.9915C264.94 68.1619 264.369 68.2472 263.721 68.2472ZM264.761 65.7415C265.295 65.7415 265.766 65.6364 266.175 65.4261C266.585 65.2102 266.906 64.9205 267.138 64.5568C267.371 64.1932 267.488 63.7812 267.488 63.321V61.9318C267.374 62.0057 267.218 62.0739 267.019 62.1364C266.826 62.1932 266.607 62.2472 266.363 62.2983C266.119 62.3437 265.874 62.3864 265.63 62.4261C265.386 62.4602 265.164 62.4915 264.965 62.5199C264.539 62.5824 264.167 62.6818 263.849 62.8182C263.531 62.9545 263.283 63.1392 263.107 63.3722C262.931 63.5994 262.843 63.8835 262.843 64.2244C262.843 64.7188 263.022 65.0966 263.38 65.358C263.744 65.6136 264.204 65.7415 264.761 65.7415ZM278.734 68.2131C277.739 68.2131 276.839 67.9574 276.032 67.446C275.231 66.929 274.594 66.1705 274.123 65.1705C273.657 64.1648 273.424 62.9318 273.424 61.4716C273.424 59.9716 273.665 58.7244 274.148 57.7301C274.631 56.7301 275.273 55.983 276.075 55.4886C276.881 54.9886 277.765 54.7386 278.725 54.7386C279.458 54.7386 280.069 54.8636 280.558 55.1136C281.052 55.358 281.45 55.6648 281.751 56.0341C282.058 56.3977 282.29 56.7557 282.45 57.108H282.56V50.5455H286.183V68H282.603V65.9034H282.45C282.279 66.267 282.038 66.6278 281.725 66.9858C281.418 67.3381 281.018 67.6307 280.523 67.8636C280.035 68.0966 279.438 68.2131 278.734 68.2131ZM279.884 65.3239C280.469 65.3239 280.964 65.1648 281.367 64.8466C281.776 64.5227 282.089 64.071 282.305 63.4915C282.526 62.9119 282.637 62.233 282.637 61.4545C282.637 60.6761 282.529 60 282.313 59.4261C282.097 58.8523 281.785 58.4091 281.376 58.0966C280.967 57.7841 280.469 57.6278 279.884 57.6278C279.288 57.6278 278.785 57.7898 278.376 58.1136C277.967 58.4375 277.657 58.8864 277.447 59.4602C277.237 60.0341 277.131 60.6989 277.131 61.4545C277.131 62.2159 277.237 62.8892 277.447 63.4744C277.663 64.054 277.972 64.5085 278.376 64.8381C278.785 65.1619 279.288 65.3239 279.884 65.3239ZM289.168 68V54.9091H292.628V57.2188H292.781C293.054 56.4517 293.509 55.8466 294.145 55.4034C294.781 54.9602 295.543 54.7386 296.429 54.7386C297.327 54.7386 298.091 54.9631 298.722 55.4119C299.352 55.8551 299.773 56.4574 299.983 57.2188H300.119C300.386 56.4688 300.869 55.8693 301.568 55.4205C302.273 54.9659 303.105 54.7386 304.065 54.7386C305.287 54.7386 306.278 55.1278 307.04 55.9062C307.807 56.679 308.19 57.7756 308.19 59.196V68H304.568V59.9119C304.568 59.1847 304.375 58.6392 303.989 58.2756C303.602 57.9119 303.119 57.7301 302.54 57.7301C301.881 57.7301 301.366 57.9403 300.997 58.3608C300.628 58.7756 300.443 59.3239 300.443 60.0057V68H296.923V59.8352C296.923 59.1932 296.739 58.6818 296.369 58.3011C296.006 57.9205 295.526 57.7301 294.929 57.7301C294.526 57.7301 294.162 57.8324 293.838 58.0369C293.52 58.2358 293.267 58.517 293.08 58.8807C292.892 59.2386 292.798 59.6591 292.798 60.142V68H289.168ZM311.058 68V54.9091H314.689V68H311.058ZM312.882 53.2216C312.342 53.2216 311.879 53.0426 311.493 52.6847C311.112 52.321 310.922 51.8864 310.922 51.3807C310.922 50.8807 311.112 50.4517 311.493 50.0938C311.879 49.7301 312.342 49.5483 312.882 49.5483C313.422 49.5483 313.882 49.7301 314.263 50.0938C314.649 50.4517 314.842 50.8807 314.842 51.3807C314.842 51.8864 314.649 52.321 314.263 52.6847C313.882 53.0426 313.422 53.2216 312.882 53.2216ZM328.489 58.642L325.165 58.8466C325.109 58.5625 324.987 58.3068 324.799 58.0795C324.612 57.8466 324.364 57.6619 324.058 57.5256C323.756 57.3835 323.396 57.3125 322.975 57.3125C322.413 57.3125 321.938 57.4318 321.552 57.6705C321.165 57.9034 320.972 58.2159 320.972 58.608C320.972 58.9205 321.097 59.1847 321.347 59.4006C321.597 59.6165 322.026 59.7898 322.634 59.9205L325.004 60.3977C326.276 60.6591 327.225 61.0795 327.85 61.6591C328.475 62.2386 328.788 63 328.788 63.9432C328.788 64.8011 328.535 65.554 328.029 66.2017C327.529 66.8494 326.842 67.3551 325.967 67.7188C325.097 68.0767 324.094 68.2557 322.958 68.2557C321.225 68.2557 319.844 67.8949 318.816 67.1733C317.793 66.446 317.194 65.4574 317.018 64.2074L320.589 64.0199C320.697 64.5483 320.958 64.9517 321.373 65.2301C321.788 65.5028 322.319 65.6392 322.967 65.6392C323.603 65.6392 324.114 65.517 324.501 65.2727C324.893 65.0227 325.092 64.7017 325.097 64.3097C325.092 63.9801 324.952 63.7102 324.68 63.5C324.407 63.2841 323.987 63.1193 323.418 63.0057L321.151 62.554C319.873 62.2983 318.921 61.8551 318.296 61.2244C317.677 60.5937 317.367 59.7898 317.367 58.8125C317.367 57.9716 317.594 57.2472 318.049 56.6392C318.509 56.0312 319.154 55.5625 319.984 55.233C320.819 54.9034 321.796 54.7386 322.915 54.7386C324.569 54.7386 325.87 55.0881 326.819 55.7869C327.773 56.4858 328.33 57.4375 328.489 58.642ZM331.074 68V54.9091H334.705V68H331.074ZM332.898 53.2216C332.358 53.2216 331.895 53.0426 331.509 52.6847C331.128 52.321 330.938 51.8864 330.938 51.3807C330.938 50.8807 331.128 50.4517 331.509 50.0938C331.895 49.7301 332.358 49.5483 332.898 49.5483C333.438 49.5483 333.898 49.7301 334.278 50.0938C334.665 50.4517 334.858 50.8807 334.858 51.3807C334.858 51.8864 334.665 52.321 334.278 52.6847C333.898 53.0426 333.438 53.2216 332.898 53.2216ZM343.528 68.2557C342.204 68.2557 341.059 67.9744 340.093 67.4119C339.133 66.8437 338.391 66.054 337.869 65.0426C337.346 64.0256 337.085 62.8466 337.085 61.5057C337.085 60.1534 337.346 58.9716 337.869 57.9602C338.391 56.9432 339.133 56.1534 340.093 55.5909C341.059 55.0227 342.204 54.7386 343.528 54.7386C344.852 54.7386 345.994 55.0227 346.954 55.5909C347.92 56.1534 348.664 56.9432 349.187 57.9602C349.71 58.9716 349.971 60.1534 349.971 61.5057C349.971 62.8466 349.71 64.0256 349.187 65.0426C348.664 66.054 347.92 66.8437 346.954 67.4119C345.994 67.9744 344.852 68.2557 343.528 68.2557ZM343.545 65.4432C344.147 65.4432 344.65 65.2727 345.053 64.9318C345.457 64.5852 345.761 64.1136 345.965 63.517C346.175 62.9205 346.281 62.2415 346.281 61.4801C346.281 60.7188 346.175 60.0398 345.965 59.4432C345.761 58.8466 345.457 58.375 345.053 58.0284C344.65 57.6818 344.147 57.5085 343.545 57.5085C342.937 57.5085 342.425 57.6818 342.011 58.0284C341.602 58.375 341.292 58.8466 341.082 59.4432C340.877 60.0398 340.775 60.7188 340.775 61.4801C340.775 62.2415 340.877 62.9205 341.082 63.517C341.292 64.1136 341.602 64.5852 342.011 64.9318C342.425 65.2727 342.937 65.4432 343.545 65.4432ZM342.224 53.2216L344.031 49.3438H347.388L344.789 53.2216H342.224ZM355.962 60.4318V68H352.332V54.9091H355.792V57.2188H355.945C356.235 56.4574 356.721 55.8551 357.403 55.4119C358.085 54.9631 358.911 54.7386 359.883 54.7386C360.792 54.7386 361.585 54.9375 362.261 55.3352C362.937 55.733 363.462 56.3011 363.837 57.0398C364.212 57.7727 364.4 58.6477 364.4 59.6648V68H360.769V60.3125C360.775 59.5114 360.57 58.8864 360.156 58.4375C359.741 57.983 359.17 57.7557 358.442 57.7557C357.954 57.7557 357.522 57.8608 357.147 58.071C356.778 58.2812 356.488 58.5881 356.278 58.9915C356.073 59.3892 355.968 59.8693 355.962 60.4318ZM375.058 72.9091C374.597 72.9091 374.165 72.8722 373.762 72.7983C373.364 72.7301 373.035 72.642 372.773 72.5341L373.592 69.8239C374.018 69.9545 374.401 70.0256 374.742 70.0369C375.089 70.0483 375.387 69.9688 375.637 69.7983C375.893 69.6278 376.1 69.3381 376.259 68.929L376.472 68.375L371.776 54.9091H375.594L378.305 64.5227H378.441L381.177 54.9091H385.021L379.933 69.4148C379.688 70.1193 379.356 70.733 378.935 71.2557C378.521 71.7841 377.995 72.1903 377.359 72.4744C376.722 72.7642 375.955 72.9091 375.058 72.9091Z" fill="#16271F" fill-opacity="0.76"/>
<path d="M1.44886 97V83.9091H4.90909V86.2188H5.0625C5.33523 85.4517 5.78977 84.8466 6.42614 84.4034C7.0625 83.9602 7.82386 83.7386 8.71023 83.7386C9.60795 83.7386 10.3722 83.9631 11.0028 84.4119C11.6335 84.8551 12.054 85.4574 12.2642 86.2188H12.4006C12.6676 85.4688 13.1506 84.8693 13.8494 84.4205C14.554 83.9659 15.3864 83.7386 16.3466 83.7386C17.5682 83.7386 18.5597 84.1278 19.321 84.9062C20.0881 85.679 20.4716 86.7756 20.4716 88.196V97H16.8494V88.9119C16.8494 88.1847 16.6563 87.6392 16.2699 87.2756C15.8835 86.9119 15.4006 86.7301 14.821 86.7301C14.1619 86.7301 13.6477 86.9403 13.2784 87.3608C12.9091 87.7756 12.7244 88.3239 12.7244 89.0057V97H9.20455V88.8352C9.20455 88.1932 9.01989 87.6818 8.65057 87.3011C8.28693 86.9205 7.80682 86.7301 7.21023 86.7301C6.80682 86.7301 6.44318 86.8324 6.11932 87.0369C5.80114 87.2358 5.5483 87.517 5.3608 87.8807C5.1733 88.2386 5.07955 88.6591 5.07955 89.142V97H1.44886ZM29.2543 97.2557C27.9304 97.2557 26.7855 96.9744 25.8196 96.4119C24.8594 95.8437 24.1179 95.054 23.5952 94.0426C23.0724 93.0256 22.8111 91.8466 22.8111 90.5057C22.8111 89.1534 23.0724 87.9716 23.5952 86.9602C24.1179 85.9432 24.8594 85.1534 25.8196 84.5909C26.7855 84.0227 27.9304 83.7386 29.2543 83.7386C30.5781 83.7386 31.7202 84.0227 32.6804 84.5909C33.6463 85.1534 34.3906 85.9432 34.9134 86.9602C35.4361 87.9716 35.6974 89.1534 35.6974 90.5057C35.6974 91.8466 35.4361 93.0256 34.9134 94.0426C34.3906 95.054 33.6463 95.8437 32.6804 96.4119C31.7202 96.9744 30.5781 97.2557 29.2543 97.2557ZM29.2713 94.4432C29.8736 94.4432 30.3764 94.2727 30.7798 93.9318C31.1832 93.5852 31.4872 93.1136 31.6918 92.517C31.902 91.9205 32.0071 91.2415 32.0071 90.4801C32.0071 89.7188 31.902 89.0398 31.6918 88.4432C31.4872 87.8466 31.1832 87.375 30.7798 87.0284C30.3764 86.6818 29.8736 86.5085 29.2713 86.5085C28.6634 86.5085 28.152 86.6818 27.7372 87.0284C27.3281 87.375 27.0185 87.8466 26.8082 88.4432C26.6037 89.0398 26.5014 89.7188 26.5014 90.4801C26.5014 91.2415 26.6037 91.9205 26.8082 92.517C27.0185 93.1136 27.3281 93.5852 27.7372 93.9318C28.152 94.2727 28.6634 94.4432 29.2713 94.4432ZM49.8409 83.9091L45.2642 97H41.1733L36.5966 83.9091H40.4318L43.1506 93.2756H43.2869L45.9972 83.9091H49.8409ZM51.6989 97V83.9091H55.3295V97H51.6989ZM53.5227 82.2216C52.983 82.2216 52.5199 82.0426 52.1335 81.6847C51.7528 81.321 51.5625 80.8864 51.5625 80.3807C51.5625 79.8807 51.7528 79.4517 52.1335 79.0938C52.5199 78.7301 52.983 78.5483 53.5227 78.5483C54.0625 78.5483 54.5227 78.7301 54.9034 79.0938C55.2898 79.4517 55.483 79.8807 55.483 80.3807C55.483 80.8864 55.2898 81.321 54.9034 81.6847C54.5227 82.0426 54.0625 82.2216 53.5227 82.2216ZM61.8686 79.5455V97H58.2379V79.5455H61.8686ZM64.777 97V83.9091H68.4077V97H64.777ZM66.6009 82.2216C66.0611 82.2216 65.598 82.0426 65.2116 81.6847C64.831 81.321 64.6406 80.8864 64.6406 80.3807C64.6406 79.8807 64.831 79.4517 65.2116 79.0938C65.598 78.7301 66.0611 78.5483 66.6009 78.5483C67.1406 78.5483 67.6009 78.7301 67.9815 79.0938C68.3679 79.4517 68.5611 79.8807 68.5611 80.3807C68.5611 80.8864 68.3679 81.321 67.9815 81.6847C67.6009 82.0426 67.1406 82.2216 66.6009 82.2216ZM76.1399 97.2131C75.1456 97.2131 74.245 96.9574 73.4382 96.446C72.6371 95.929 72.0007 95.1705 71.5291 94.1705C71.0632 93.1648 70.8303 91.9318 70.8303 90.4716C70.8303 88.9716 71.0717 87.7244 71.5547 86.7301C72.0376 85.7301 72.6797 84.983 73.4808 84.4886C74.2876 83.9886 75.1712 83.7386 76.1314 83.7386C76.8643 83.7386 77.4751 83.8636 77.9638 84.1136C78.4581 84.358 78.8558 84.6648 79.157 85.0341C79.4638 85.3977 79.6967 85.7557 79.8558 86.108H79.9666V79.5455H83.5888V97H80.0092V94.9034H79.8558C79.6854 95.267 79.4439 95.6278 79.1314 95.9858C78.8246 96.3381 78.424 96.6307 77.9297 96.8636C77.4411 97.0966 76.8445 97.2131 76.1399 97.2131ZM77.2905 94.3239C77.8757 94.3239 78.37 94.1648 78.7734 93.8466C79.1825 93.5227 79.495 93.071 79.7109 92.4915C79.9325 91.9119 80.0433 91.233 80.0433 90.4545C80.0433 89.6761 79.9354 89 79.7195 88.4261C79.5036 87.8523 79.1911 87.4091 78.782 87.0966C78.3729 86.7841 77.8757 86.6278 77.2905 86.6278C76.6939 86.6278 76.1911 86.7898 75.782 87.1136C75.3729 87.4375 75.0632 87.8864 74.853 88.4602C74.6428 89.0341 74.5376 89.6989 74.5376 90.4545C74.5376 91.2159 74.6428 91.8892 74.853 92.4744C75.0689 93.054 75.3786 93.5085 75.782 93.8381C76.1911 94.1619 76.6939 94.3239 77.2905 94.3239ZM90.3068 97.2472C89.4716 97.2472 88.7273 97.1023 88.0739 96.8125C87.4205 96.517 86.9034 96.0824 86.5227 95.5085C86.1477 94.929 85.9602 94.2074 85.9602 93.3438C85.9602 92.6165 86.0938 92.0057 86.3608 91.5114C86.6278 91.017 86.9915 90.6193 87.4517 90.3182C87.9119 90.017 88.4347 89.7898 89.0199 89.6364C89.6108 89.483 90.2301 89.375 90.8778 89.3125C91.6392 89.233 92.2528 89.1591 92.7188 89.0909C93.1847 89.017 93.5227 88.9091 93.733 88.767C93.9432 88.625 94.0483 88.4148 94.0483 88.1364V88.0852C94.0483 87.5455 93.8778 87.1278 93.5369 86.8324C93.2017 86.5369 92.7244 86.3892 92.1051 86.3892C91.4517 86.3892 90.9318 86.5341 90.5455 86.8239C90.1591 87.108 89.9034 87.4659 89.7784 87.8977L86.4205 87.625C86.5909 86.8295 86.9261 86.142 87.4261 85.5625C87.9261 84.9773 88.571 84.5284 89.3608 84.2159C90.1563 83.8977 91.0767 83.7386 92.1222 83.7386C92.8494 83.7386 93.5455 83.8239 94.2102 83.9943C94.8807 84.1648 95.4744 84.429 95.9915 84.7869C96.5142 85.1449 96.9261 85.6051 97.2273 86.1676C97.5284 86.7244 97.679 87.392 97.679 88.1705V97H94.2358V95.1847H94.1335C93.9233 95.5938 93.642 95.9545 93.2898 96.267C92.9375 96.5739 92.5142 96.8153 92.0199 96.9915C91.5256 97.1619 90.9545 97.2472 90.3068 97.2472ZM91.3466 94.7415C91.8807 94.7415 92.3523 94.6364 92.7614 94.4261C93.1705 94.2102 93.4915 93.9205 93.7244 93.5568C93.9574 93.1932 94.0739 92.7812 94.0739 92.321V90.9318C93.9602 91.0057 93.804 91.0739 93.6051 91.1364C93.4119 91.1932 93.1932 91.2472 92.9489 91.2983C92.7045 91.3437 92.4602 91.3864 92.2159 91.4261C91.9716 91.4602 91.75 91.4915 91.5511 91.5199C91.125 91.5824 90.7528 91.6818 90.4347 91.8182C90.1165 91.9545 89.8693 92.1392 89.6932 92.3722C89.517 92.5994 89.429 92.8835 89.429 93.2244C89.429 93.7188 89.608 94.0966 89.9659 94.358C90.3295 94.6136 90.7898 94.7415 91.3466 94.7415ZM105.32 97.2131C104.325 97.2131 103.425 96.9574 102.618 96.446C101.817 95.929 101.18 95.1705 100.709 94.1705C100.243 93.1648 100.01 91.9318 100.01 90.4716C100.01 88.9716 100.251 87.7244 100.734 86.7301C101.217 85.7301 101.859 84.983 102.661 84.4886C103.467 83.9886 104.351 83.7386 105.311 83.7386C106.044 83.7386 106.655 83.8636 107.143 84.1136C107.638 84.358 108.036 84.6648 108.337 85.0341C108.643 85.3977 108.876 85.7557 109.036 86.108H109.146V79.5455H112.768V97H109.189V94.9034H109.036C108.865 95.267 108.624 95.6278 108.311 95.9858C108.004 96.3381 107.604 96.6307 107.109 96.8636C106.621 97.0966 106.024 97.2131 105.32 97.2131ZM106.47 94.3239C107.055 94.3239 107.55 94.1648 107.953 93.8466C108.362 93.5227 108.675 93.071 108.891 92.4915C109.112 91.9119 109.223 91.233 109.223 90.4545C109.223 89.6761 109.115 89 108.899 88.4261C108.683 87.8523 108.371 87.4091 107.962 87.0966C107.553 86.7841 107.055 86.6278 106.47 86.6278C105.874 86.6278 105.371 86.7898 104.962 87.1136C104.553 87.4375 104.243 87.8864 104.033 88.4602C103.822 89.0341 103.717 89.6989 103.717 90.4545C103.717 91.2159 103.822 91.8892 104.033 92.4744C104.249 93.054 104.558 93.5085 104.962 93.8381C105.371 94.1619 105.874 94.3239 106.47 94.3239ZM125.041 97.2472C124.206 97.2472 123.462 97.1023 122.808 96.8125C122.155 96.517 121.638 96.0824 121.257 95.5085C120.882 94.929 120.695 94.2074 120.695 93.3438C120.695 92.6165 120.828 92.0057 121.095 91.5114C121.362 91.017 121.726 90.6193 122.186 90.3182C122.646 90.017 123.169 89.7898 123.754 89.6364C124.345 89.483 124.964 89.375 125.612 89.3125C126.374 89.233 126.987 89.1591 127.453 89.0909C127.919 89.017 128.257 88.9091 128.467 88.767C128.678 88.625 128.783 88.4148 128.783 88.1364V88.0852C128.783 87.5455 128.612 87.1278 128.271 86.8324C127.936 86.5369 127.459 86.3892 126.839 86.3892C126.186 86.3892 125.666 86.5341 125.28 86.8239C124.893 87.108 124.638 87.4659 124.513 87.8977L121.155 87.625C121.325 86.8295 121.661 86.142 122.161 85.5625C122.661 84.9773 123.305 84.5284 124.095 84.2159C124.891 83.8977 125.811 83.7386 126.857 83.7386C127.584 83.7386 128.28 83.8239 128.945 83.9943C129.615 84.1648 130.209 84.429 130.726 84.7869C131.249 85.1449 131.661 85.6051 131.962 86.1676C132.263 86.7244 132.413 87.392 132.413 88.1705V97H128.97V95.1847H128.868C128.658 95.5938 128.376 95.9545 128.024 96.267C127.672 96.5739 127.249 96.8153 126.754 96.9915C126.26 97.1619 125.689 97.2472 125.041 97.2472ZM126.081 94.7415C126.615 94.7415 127.087 94.6364 127.496 94.4261C127.905 94.2102 128.226 93.9205 128.459 93.5568C128.692 93.1932 128.808 92.7812 128.808 92.321V90.9318C128.695 91.0057 128.538 91.0739 128.339 91.1364C128.146 91.1932 127.928 91.2472 127.683 91.2983C127.439 91.3437 127.195 91.3864 126.95 91.4261C126.706 91.4602 126.484 91.4915 126.286 91.5199C125.859 91.5824 125.487 91.6818 125.169 91.8182C124.851 91.9545 124.604 92.1392 124.428 92.3722C124.251 92.5994 124.163 92.8835 124.163 93.2244C124.163 93.7188 124.342 94.0966 124.7 94.358C125.064 94.6136 125.524 94.7415 126.081 94.7415ZM141.145 97.2557C139.804 97.2557 138.651 96.9716 137.685 96.4034C136.724 95.8295 135.986 95.0341 135.469 94.017C134.957 93 134.702 91.8295 134.702 90.5057C134.702 89.1648 134.96 87.9886 135.477 86.9773C136 85.9602 136.741 85.1676 137.702 84.5994C138.662 84.0256 139.804 83.7386 141.128 83.7386C142.27 83.7386 143.27 83.946 144.128 84.3608C144.986 84.7756 145.665 85.358 146.165 86.108C146.665 86.858 146.94 87.7386 146.991 88.75H143.565C143.469 88.0966 143.213 87.571 142.798 87.1733C142.389 86.7699 141.852 86.5682 141.188 86.5682C140.625 86.5682 140.134 86.7216 139.713 87.0284C139.298 87.3295 138.974 87.7699 138.741 88.3494C138.509 88.929 138.392 89.6307 138.392 90.4545C138.392 91.2898 138.506 92 138.733 92.5852C138.966 93.1705 139.293 93.6165 139.713 93.9233C140.134 94.2301 140.625 94.3835 141.188 94.3835C141.602 94.3835 141.974 94.2983 142.304 94.1278C142.639 93.9574 142.915 93.7102 143.131 93.3864C143.352 93.0568 143.497 92.6619 143.565 92.2017H146.991C146.935 93.2017 146.662 94.0824 146.173 94.8438C145.69 95.5994 145.023 96.1903 144.17 96.6165C143.318 97.0426 142.31 97.2557 141.145 97.2557ZM153.049 97.2472C152.214 97.2472 151.469 97.1023 150.816 96.8125C150.163 96.517 149.646 96.0824 149.265 95.5085C148.89 94.929 148.702 94.2074 148.702 93.3438C148.702 92.6165 148.836 92.0057 149.103 91.5114C149.37 91.017 149.734 90.6193 150.194 90.3182C150.654 90.017 151.177 89.7898 151.762 89.6364C152.353 89.483 152.972 89.375 153.62 89.3125C154.381 89.233 154.995 89.1591 155.461 89.0909C155.927 89.017 156.265 88.9091 156.475 88.767C156.685 88.625 156.79 88.4148 156.79 88.1364V88.0852C156.79 87.5455 156.62 87.1278 156.279 86.8324C155.944 86.5369 155.467 86.3892 154.847 86.3892C154.194 86.3892 153.674 86.5341 153.288 86.8239C152.901 87.108 152.646 87.4659 152.521 87.8977L149.163 87.625C149.333 86.8295 149.668 86.142 150.168 85.5625C150.668 84.9773 151.313 84.5284 152.103 84.2159C152.898 83.8977 153.819 83.7386 154.864 83.7386C155.592 83.7386 156.288 83.8239 156.952 83.9943C157.623 84.1648 158.217 84.429 158.734 84.7869C159.256 85.1449 159.668 85.6051 159.969 86.1676C160.271 86.7244 160.421 87.392 160.421 88.1705V97H156.978V95.1847H156.876C156.665 95.5938 156.384 95.9545 156.032 96.267C155.68 96.5739 155.256 96.8153 154.762 96.9915C154.268 97.1619 153.697 97.2472 153.049 97.2472ZM154.089 94.7415C154.623 94.7415 155.094 94.6364 155.504 94.4261C155.913 94.2102 156.234 93.9205 156.467 93.5568C156.7 93.1932 156.816 92.7812 156.816 92.321V90.9318C156.702 91.0057 156.546 91.0739 156.347 91.1364C156.154 91.1932 155.935 91.2472 155.691 91.2983C155.447 91.3437 155.202 91.3864 154.958 91.4261C154.714 91.4602 154.492 91.4915 154.293 91.5199C153.867 91.5824 153.495 91.6818 153.177 91.8182C152.859 91.9545 152.612 92.1392 152.435 92.3722C152.259 92.5994 152.171 92.8835 152.171 93.2244C152.171 93.7188 152.35 94.0966 152.708 94.358C153.072 94.6136 153.532 94.7415 154.089 94.7415ZM168.062 97.2131C167.067 97.2131 166.167 96.9574 165.36 96.446C164.559 95.929 163.923 95.1705 163.451 94.1705C162.985 93.1648 162.752 91.9318 162.752 90.4716C162.752 88.9716 162.994 87.7244 163.477 86.7301C163.96 85.7301 164.602 84.983 165.403 84.4886C166.21 83.9886 167.093 83.7386 168.053 83.7386C168.786 83.7386 169.397 83.8636 169.886 84.1136C170.38 84.358 170.778 84.6648 171.079 85.0341C171.386 85.3977 171.619 85.7557 171.778 86.108H171.888V79.5455H175.511V97H171.931V94.9034H171.778C171.607 95.267 171.366 95.6278 171.053 95.9858C170.746 96.3381 170.346 96.6307 169.852 96.8636C169.363 97.0966 168.766 97.2131 168.062 97.2131ZM169.212 94.3239C169.798 94.3239 170.292 94.1648 170.695 93.8466C171.104 93.5227 171.417 93.071 171.633 92.4915C171.854 91.9119 171.965 91.233 171.965 90.4545C171.965 89.6761 171.857 89 171.641 88.4261C171.425 87.8523 171.113 87.4091 170.704 87.0966C170.295 86.7841 169.798 86.6278 169.212 86.6278C168.616 86.6278 168.113 86.7898 167.704 87.1136C167.295 87.4375 166.985 87.8864 166.775 88.4602C166.565 89.0341 166.46 89.6989 166.46 90.4545C166.46 91.2159 166.565 91.8892 166.775 92.4744C166.991 93.054 167.3 93.5085 167.704 93.8381C168.113 94.1619 168.616 94.3239 169.212 94.3239ZM184.462 97.2557C183.115 97.2557 181.956 96.983 180.984 96.4375C180.018 95.8864 179.274 95.108 178.751 94.1023C178.229 93.0909 177.967 91.8949 177.967 90.5142C177.967 89.1676 178.229 87.9858 178.751 86.9688C179.274 85.9517 180.01 85.1591 180.959 84.5909C181.913 84.0227 183.033 83.7386 184.317 83.7386C185.18 83.7386 185.984 83.8778 186.729 84.1562C187.479 84.429 188.132 84.8409 188.689 85.392C189.251 85.9432 189.689 86.6364 190.001 87.4716C190.314 88.3011 190.47 89.2727 190.47 90.3864V91.3835H179.416V89.1335H187.053C187.053 88.6108 186.939 88.1477 186.712 87.7443C186.484 87.3409 186.169 87.0256 185.766 86.7983C185.368 86.5653 184.905 86.4489 184.376 86.4489C183.825 86.4489 183.337 86.5767 182.911 86.8324C182.49 87.0824 182.161 87.4205 181.922 87.8466C181.683 88.267 181.561 88.7358 181.555 89.2528V91.392C181.555 92.0398 181.675 92.5994 181.913 93.071C182.158 93.5426 182.501 93.9062 182.945 94.1619C183.388 94.4176 183.913 94.5455 184.521 94.5455C184.925 94.5455 185.294 94.4886 185.629 94.375C185.964 94.2614 186.251 94.0909 186.49 93.8636C186.729 93.6364 186.911 93.358 187.036 93.0284L190.393 93.25C190.223 94.0568 189.874 94.7614 189.345 95.3636C188.822 95.9602 188.146 96.4261 187.317 96.7614C186.493 97.0909 185.541 97.2557 184.462 97.2557ZM182.928 82.2216L184.734 78.3438H188.092L185.493 82.2216H182.928ZM192.839 97V83.9091H196.3V86.2188H196.453C196.726 85.4517 197.18 84.8466 197.817 84.4034C198.453 83.9602 199.214 83.7386 200.101 83.7386C200.999 83.7386 201.763 83.9631 202.393 84.4119C203.024 84.8551 203.445 85.4574 203.655 86.2188H203.791C204.058 85.4688 204.541 84.8693 205.24 84.4205C205.945 83.9659 206.777 83.7386 207.737 83.7386C208.959 83.7386 209.95 84.1278 210.712 84.9062C211.479 85.679 211.862 86.7756 211.862 88.196V97H208.24V88.9119C208.24 88.1847 208.047 87.6392 207.661 87.2756C207.274 86.9119 206.791 86.7301 206.212 86.7301C205.553 86.7301 205.038 86.9403 204.669 87.3608C204.3 87.7756 204.115 88.3239 204.115 89.0057V97H200.595V88.8352C200.595 88.1932 200.411 87.6818 200.041 87.3011C199.678 86.9205 199.197 86.7301 198.601 86.7301C198.197 86.7301 197.834 86.8324 197.51 87.0369C197.192 87.2358 196.939 87.517 196.751 87.8807C196.564 88.2386 196.47 88.6591 196.47 89.142V97H192.839ZM214.73 97V83.9091H218.361V97H214.73ZM216.554 82.2216C216.014 82.2216 215.551 82.0426 215.165 81.6847C214.784 81.321 214.594 80.8864 214.594 80.3807C214.594 79.8807 214.784 79.4517 215.165 79.0938C215.551 78.7301 216.014 78.5483 216.554 78.5483C217.094 78.5483 217.554 78.7301 217.935 79.0938C218.321 79.4517 218.514 79.8807 218.514 80.3807C218.514 80.8864 218.321 81.321 217.935 81.6847C217.554 82.0426 217.094 82.2216 216.554 82.2216ZM227.184 97.2557C225.843 97.2557 224.69 96.9716 223.724 96.4034C222.763 95.8295 222.025 95.0341 221.508 94.017C220.996 93 220.741 91.8295 220.741 90.5057C220.741 89.1648 220.999 87.9886 221.516 86.9773C222.039 85.9602 222.781 85.1676 223.741 84.5994C224.701 84.0256 225.843 83.7386 227.167 83.7386C228.309 83.7386 229.309 83.946 230.167 84.3608C231.025 84.7756 231.704 85.358 232.204 86.108C232.704 86.858 232.979 87.7386 233.031 88.75H229.604C229.508 88.0966 229.252 87.571 228.837 87.1733C228.428 86.7699 227.891 86.5682 227.227 86.5682C226.664 86.5682 226.173 86.7216 225.752 87.0284C225.337 87.3295 225.013 87.7699 224.781 88.3494C224.548 88.929 224.431 89.6307 224.431 90.4545C224.431 91.2898 224.545 92 224.772 92.5852C225.005 93.1705 225.332 93.6165 225.752 93.9233C226.173 94.2301 226.664 94.3835 227.227 94.3835C227.641 94.3835 228.013 94.2983 228.343 94.1278C228.678 93.9574 228.954 93.7102 229.17 93.3864C229.391 93.0568 229.536 92.6619 229.604 92.2017H233.031C232.974 93.2017 232.701 94.0824 232.212 94.8438C231.729 95.5994 231.062 96.1903 230.21 96.6165C229.357 97.0426 228.349 97.2557 227.184 97.2557ZM239.088 97.2472C238.253 97.2472 237.509 97.1023 236.855 96.8125C236.202 96.517 235.685 96.0824 235.304 95.5085C234.929 94.929 234.741 94.2074 234.741 93.3438C234.741 92.6165 234.875 92.0057 235.142 91.5114C235.409 91.017 235.773 90.6193 236.233 90.3182C236.693 90.017 237.216 89.7898 237.801 89.6364C238.392 89.483 239.011 89.375 239.659 89.3125C240.42 89.233 241.034 89.1591 241.5 89.0909C241.966 89.017 242.304 88.9091 242.514 88.767C242.724 88.625 242.83 88.4148 242.83 88.1364V88.0852C242.83 87.5455 242.659 87.1278 242.318 86.8324C241.983 86.5369 241.506 86.3892 240.886 86.3892C240.233 86.3892 239.713 86.5341 239.327 86.8239C238.94 87.108 238.685 87.4659 238.56 87.8977L235.202 87.625C235.372 86.8295 235.707 86.142 236.207 85.5625C236.707 84.9773 237.352 84.5284 238.142 84.2159C238.938 83.8977 239.858 83.7386 240.903 83.7386C241.631 83.7386 242.327 83.8239 242.991 83.9943C243.662 84.1648 244.256 84.429 244.773 84.7869C245.295 85.1449 245.707 85.6051 246.009 86.1676C246.31 86.7244 246.46 87.392 246.46 88.1705V97H243.017V95.1847H242.915C242.705 95.5938 242.423 95.9545 242.071 96.267C241.719 96.5739 241.295 96.8153 240.801 96.9915C240.307 97.1619 239.736 97.2472 239.088 97.2472ZM240.128 94.7415C240.662 94.7415 241.134 94.6364 241.543 94.4261C241.952 94.2102 242.273 93.9205 242.506 93.5568C242.739 93.1932 242.855 92.7812 242.855 92.321V90.9318C242.741 91.0057 242.585 91.0739 242.386 91.1364C242.193 91.1932 241.974 91.2472 241.73 91.2983C241.486 91.3437 241.241 91.3864 240.997 91.4261C240.753 91.4602 240.531 91.4915 240.332 91.5199C239.906 91.5824 239.534 91.6818 239.216 91.8182C238.898 91.9545 238.651 92.1392 238.474 92.3722C238.298 92.5994 238.21 92.8835 238.21 93.2244C238.21 93.7188 238.389 94.0966 238.747 94.358C239.111 94.6136 239.571 94.7415 240.128 94.7415Z" fill="#08110A" fill-opacity="0.93"/>
</svg>
