<svg width="394" height="104" viewBox="0 0 394 104" fill="none" xmlns="http://www.w3.org/2000/svg">
<path d="M7.54545 45V15.9091H16.0682C17.697 15.9091 19.1364 16.2737 20.3864 17.0028C21.6458 17.732 22.6307 18.7358 23.3409 20.0142C24.0606 21.2926 24.4205 22.7652 24.4205 24.4318C24.4205 26.0795 24.0606 27.5426 23.3409 28.821C22.6307 30.09 21.6458 31.089 20.3864 31.8182C19.1364 32.5379 17.697 32.8977 16.0682 32.8977H8V31.9886H16.0682C17.5265 31.9886 18.8144 31.6667 19.9318 31.0227C21.0492 30.3788 21.9252 29.4886 22.5597 28.3523C23.1941 27.2159 23.5114 25.9091 23.5114 24.4318C23.5114 22.9451 23.1941 21.6288 22.5597 20.483C21.9252 19.3371 21.0492 18.4422 19.9318 17.7983C18.8144 17.1449 17.5265 16.8182 16.0682 16.8182H8.45455V45H7.54545ZM31.8033 45V15.9091H47.3146V16.8182H32.7124V30H46.4624V30.9091H32.7124V44.0909H47.7124V45H31.8033ZM52.8899 45H51.924L62.3217 15.9091H63.5717L73.9695 45H73.0036L63.0036 17.0455H62.8899L52.8899 45ZM56.1854 34.2614H69.7081V35.1705H56.1854V34.2614ZM79.8111 15.9091H80.6065L92.4815 43.6364H92.5952L104.47 15.9091H105.266V45H104.357V18.75H104.243L92.9929 45H92.0838L80.8338 18.75H80.7202V45H79.8111V15.9091ZM112.07 45H111.104L121.501 15.9091H122.751L133.149 45H132.183L122.183 17.0455H122.07L112.07 45ZM115.365 34.2614H128.888V35.1705H115.365V34.2614Z" fill="#F9FDFE"/>
<path d="M4.51705 74V56.5455H11.4034C12.7273 56.5455 13.8551 56.7983 14.7869 57.304C15.7188 57.804 16.429 58.5 16.9176 59.392C17.4119 60.2784 17.6591 61.3011 17.6591 62.4602C17.6591 63.6193 17.4091 64.642 16.9091 65.5284C16.4091 66.4148 15.6847 67.1051 14.7358 67.5994C13.7926 68.0937 12.6506 68.3409 11.3097 68.3409H6.92045V65.3835H10.7131C11.4233 65.3835 12.0085 65.2614 12.4688 65.017C12.9347 64.767 13.2813 64.4233 13.5085 63.9858C13.7415 63.5426 13.858 63.0341 13.858 62.4602C13.858 61.8807 13.7415 61.375 13.5085 60.9432C13.2813 60.5057 12.9347 60.1676 12.4688 59.929C12.0028 59.6847 11.4119 59.5625 10.696 59.5625H8.20739V74H4.51705ZM19.9879 74V60.9091H23.5078V63.1932H23.6442C23.8828 62.3807 24.2834 61.767 24.8459 61.3523C25.4084 60.9318 26.0561 60.7216 26.7891 60.7216C26.9709 60.7216 27.1669 60.733 27.3771 60.7557C27.5874 60.7784 27.772 60.8097 27.9311 60.8494V64.071C27.7607 64.0199 27.5249 63.9744 27.2237 63.9347C26.9226 63.8949 26.647 63.875 26.397 63.875C25.8629 63.875 25.3857 63.9915 24.9652 64.2244C24.5504 64.4517 24.2209 64.7699 23.9766 65.179C23.7379 65.5881 23.6186 66.0597 23.6186 66.5938V74H19.9879ZM35.1136 74.2557C33.7898 74.2557 32.6449 73.9744 31.679 73.4119C30.7188 72.8437 29.9773 72.054 29.4545 71.0426C28.9318 70.0256 28.6705 68.8466 28.6705 67.5057C28.6705 66.1534 28.9318 64.9716 29.4545 63.9602C29.9773 62.9432 30.7188 62.1534 31.679 61.5909C32.6449 61.0227 33.7898 60.7386 35.1136 60.7386C36.4375 60.7386 37.5795 61.0227 38.5398 61.5909C39.5057 62.1534 40.25 62.9432 40.7727 63.9602C41.2955 64.9716 41.5568 66.1534 41.5568 67.5057C41.5568 68.8466 41.2955 70.0256 40.7727 71.0426C40.25 72.054 39.5057 72.8437 38.5398 73.4119C37.5795 73.9744 36.4375 74.2557 35.1136 74.2557ZM35.1307 71.4432C35.733 71.4432 36.2358 71.2727 36.6392 70.9318C37.0426 70.5852 37.3466 70.1136 37.5511 69.517C37.7614 68.9205 37.8665 68.2415 37.8665 67.4801C37.8665 66.7188 37.7614 66.0398 37.5511 65.4432C37.3466 64.8466 37.0426 64.375 36.6392 64.0284C36.2358 63.6818 35.733 63.5085 35.1307 63.5085C34.5227 63.5085 34.0114 63.6818 33.5966 64.0284C33.1875 64.375 32.8778 64.8466 32.6676 65.4432C32.4631 66.0398 32.3608 66.7188 32.3608 67.4801C32.3608 68.2415 32.4631 68.9205 32.6676 69.517C32.8778 70.1136 33.1875 70.5852 33.5966 70.9318C34.0114 71.2727 34.5227 71.4432 35.1307 71.4432ZM49.8153 79.1818C48.6392 79.1818 47.6307 79.0199 46.7898 78.696C45.9545 78.3778 45.2898 77.9432 44.7955 77.392C44.3011 76.8409 43.9801 76.2216 43.8324 75.5341L47.1903 75.0824C47.2926 75.3438 47.4545 75.5881 47.6761 75.8153C47.8977 76.0426 48.1903 76.2244 48.554 76.3608C48.9233 76.5028 49.3722 76.5739 49.9006 76.5739C50.6903 76.5739 51.3409 76.3807 51.8523 75.9943C52.3693 75.6136 52.6278 74.9744 52.6278 74.0767V71.6818H52.4744C52.3153 72.0455 52.0767 72.3892 51.7585 72.7131C51.4403 73.0369 51.0312 73.3011 50.5312 73.5057C50.0312 73.7102 49.4347 73.8125 48.7415 73.8125C47.7585 73.8125 46.8636 73.5852 46.0568 73.1307C45.2557 72.6705 44.6165 71.9687 44.1392 71.0256C43.6676 70.0767 43.4318 68.8778 43.4318 67.429C43.4318 65.946 43.6733 64.7074 44.1562 63.7131C44.6392 62.7187 45.2813 61.9744 46.0824 61.4801C46.8892 60.9858 47.7727 60.7386 48.733 60.7386C49.4659 60.7386 50.0795 60.8636 50.5739 61.1136C51.0682 61.358 51.4659 61.6648 51.767 62.0341C52.0739 62.3977 52.3097 62.7557 52.4744 63.108H52.6108V60.9091H56.2159V74.1278C56.2159 75.2415 55.9432 76.1733 55.3977 76.9233C54.8523 77.6733 54.0966 78.2358 53.1307 78.6108C52.1705 78.9915 51.0653 79.1818 49.8153 79.1818ZM49.892 71.0852C50.4773 71.0852 50.9716 70.9403 51.375 70.6506C51.7841 70.3551 52.0966 69.9347 52.3125 69.3892C52.5341 68.8381 52.6449 68.179 52.6449 67.4119C52.6449 66.6449 52.5369 65.9801 52.321 65.4176C52.1051 64.8494 51.7926 64.4091 51.3835 64.0966C50.9744 63.7841 50.4773 63.6278 49.892 63.6278C49.2955 63.6278 48.7926 63.7898 48.3835 64.1136C47.9744 64.4318 47.6648 64.875 47.4545 65.4432C47.2443 66.0114 47.1392 66.6676 47.1392 67.4119C47.1392 68.1676 47.2443 68.821 47.4545 69.3722C47.6705 69.9176 47.9801 70.3409 48.3835 70.642C48.7926 70.9375 49.2955 71.0852 49.892 71.0852ZM59.1051 74V60.9091H62.625V63.1932H62.7614C63 62.3807 63.4006 61.767 63.9631 61.3523C64.5256 60.9318 65.1733 60.7216 65.9062 60.7216C66.0881 60.7216 66.2841 60.733 66.4943 60.7557C66.7045 60.7784 66.8892 60.8097 67.0483 60.8494V64.071C66.8778 64.0199 66.642 63.9744 66.3409 63.9347C66.0398 63.8949 65.7642 63.875 65.5142 63.875C64.9801 63.875 64.5028 63.9915 64.0824 64.2244C63.6676 64.4517 63.3381 64.7699 63.0938 65.179C62.8551 65.5881 62.7358 66.0597 62.7358 66.5938V74H59.1051ZM72.2834 74.2472C71.4482 74.2472 70.7038 74.1023 70.0504 73.8125C69.397 73.517 68.88 73.0824 68.4993 72.5085C68.1243 71.929 67.9368 71.2074 67.9368 70.3438C67.9368 69.6165 68.0703 69.0057 68.3374 68.5114C68.6044 68.017 68.968 67.6193 69.4283 67.3182C69.8885 67.017 70.4112 66.7898 70.9964 66.6364C71.5874 66.483 72.2067 66.375 72.8544 66.3125C73.6158 66.233 74.2294 66.1591 74.6953 66.0909C75.1612 66.017 75.4993 65.9091 75.7095 65.767C75.9197 65.625 76.0249 65.4148 76.0249 65.1364V65.0852C76.0249 64.5455 75.8544 64.1278 75.5135 63.8324C75.1783 63.5369 74.701 63.3892 74.0817 63.3892C73.4283 63.3892 72.9084 63.5341 72.522 63.8239C72.1357 64.108 71.88 64.4659 71.755 64.8977L68.397 64.625C68.5675 63.8295 68.9027 63.142 69.4027 62.5625C69.9027 61.9773 70.5476 61.5284 71.3374 61.2159C72.1328 60.8977 73.0533 60.7386 74.0987 60.7386C74.826 60.7386 75.522 60.8239 76.1868 60.9943C76.8572 61.1648 77.451 61.429 77.968 61.7869C78.4908 62.1449 78.9027 62.6051 79.2038 63.1676C79.505 63.7244 79.6555 64.392 79.6555 65.1705V74H76.2124V72.1847H76.1101C75.8999 72.5938 75.6186 72.9545 75.2663 73.267C74.9141 73.5739 74.4908 73.8153 73.9964 73.9915C73.5021 74.1619 72.9311 74.2472 72.2834 74.2472ZM73.3232 71.7415C73.8572 71.7415 74.3288 71.6364 74.7379 71.4261C75.147 71.2102 75.468 70.9205 75.701 70.5568C75.9339 70.1932 76.0504 69.7812 76.0504 69.321V67.9318C75.9368 68.0057 75.7805 68.0739 75.5817 68.1364C75.3885 68.1932 75.1697 68.2472 74.9254 68.2983C74.6811 68.3437 74.4368 68.3864 74.1925 68.4261C73.9482 68.4602 73.7266 68.4915 73.5277 68.5199C73.1016 68.5824 72.7294 68.6818 72.4112 68.8182C72.093 68.9545 71.8459 69.1392 71.6697 69.3722C71.4936 69.5994 71.4055 69.8835 71.4055 70.2244C71.4055 70.7188 71.5845 71.0966 71.9425 71.358C72.3061 71.6136 72.7663 71.7415 73.3232 71.7415ZM82.4723 74V60.9091H85.9325V63.2188H86.0859C86.3587 62.4517 86.8132 61.8466 87.4496 61.4034C88.0859 60.9602 88.8473 60.7386 89.7337 60.7386C90.6314 60.7386 91.3956 60.9631 92.0263 61.4119C92.657 61.8551 93.0774 62.4574 93.2876 63.2188H93.424C93.6911 62.4688 94.174 61.8693 94.8729 61.4205C95.5774 60.9659 96.4098 60.7386 97.37 60.7386C98.5916 60.7386 99.5831 61.1278 100.344 61.9062C101.112 62.679 101.495 63.7756 101.495 65.196V74H97.8729V65.9119C97.8729 65.1847 97.6797 64.6392 97.2933 64.2756C96.907 63.9119 96.424 63.7301 95.8445 63.7301C95.1854 63.7301 94.6712 63.9403 94.3018 64.3608C93.9325 64.7756 93.7479 65.3239 93.7479 66.0057V74H90.228V65.8352C90.228 65.1932 90.0433 64.6818 89.674 64.3011C89.3104 63.9205 88.8303 63.7301 88.2337 63.7301C87.8303 63.7301 87.4666 63.8324 87.1428 64.0369C86.8246 64.2358 86.5717 64.517 86.3842 64.8807C86.1967 65.2386 86.103 65.6591 86.103 66.142V74H82.4723ZM108.096 74.2472C107.261 74.2472 106.516 74.1023 105.863 73.8125C105.21 73.517 104.692 73.0824 104.312 72.5085C103.937 71.929 103.749 71.2074 103.749 70.3438C103.749 69.6165 103.883 69.0057 104.15 68.5114C104.417 68.017 104.781 67.6193 105.241 67.3182C105.701 67.017 106.224 66.7898 106.809 66.6364C107.4 66.483 108.019 66.375 108.667 66.3125C109.428 66.233 110.042 66.1591 110.508 66.0909C110.974 66.017 111.312 65.9091 111.522 65.767C111.732 65.625 111.837 65.4148 111.837 65.1364V65.0852C111.837 64.5455 111.667 64.1278 111.326 63.8324C110.991 63.5369 110.513 63.3892 109.894 63.3892C109.241 63.3892 108.721 63.5341 108.335 63.8239C107.948 64.108 107.692 64.4659 107.567 64.8977L104.21 64.625C104.38 63.8295 104.715 63.142 105.215 62.5625C105.715 61.9773 106.36 61.5284 107.15 61.2159C107.945 60.8977 108.866 60.7386 109.911 60.7386C110.638 60.7386 111.335 60.8239 111.999 60.9943C112.67 61.1648 113.263 61.429 113.781 61.7869C114.303 62.1449 114.715 62.6051 115.016 63.1676C115.317 63.7244 115.468 64.392 115.468 65.1705V74H112.025V72.1847H111.923C111.712 72.5938 111.431 72.9545 111.079 73.267C110.727 73.5739 110.303 73.8153 109.809 73.9915C109.315 74.1619 108.744 74.2472 108.096 74.2472ZM109.136 71.7415C109.67 71.7415 110.141 71.6364 110.55 71.4261C110.96 71.2102 111.281 70.9205 111.513 70.5568C111.746 70.1932 111.863 69.7812 111.863 69.321V67.9318C111.749 68.0057 111.593 68.0739 111.394 68.1364C111.201 68.1932 110.982 68.2472 110.738 68.2983C110.494 68.3437 110.249 68.3864 110.005 68.4261C109.761 68.4602 109.539 68.4915 109.34 68.5199C108.914 68.5824 108.542 68.6818 108.224 68.8182C107.906 68.9545 107.658 69.1392 107.482 69.3722C107.306 69.5994 107.218 69.8835 107.218 70.2244C107.218 70.7188 107.397 71.0966 107.755 71.358C108.119 71.6136 108.579 71.7415 109.136 71.7415ZM129.805 74.2557C128.459 74.2557 127.3 73.983 126.328 73.4375C125.362 72.8864 124.618 72.108 124.095 71.1023C123.572 70.0909 123.311 68.8949 123.311 67.5142C123.311 66.1676 123.572 64.9858 124.095 63.9688C124.618 62.9517 125.354 62.1591 126.303 61.5909C127.257 61.0227 128.376 60.7386 129.661 60.7386C130.524 60.7386 131.328 60.8778 132.072 61.1562C132.822 61.429 133.476 61.8409 134.033 62.392C134.595 62.9432 135.033 63.6364 135.345 64.4716C135.658 65.3011 135.814 66.2727 135.814 67.3864V68.3835H124.76V66.1335H132.396C132.396 65.6108 132.283 65.1477 132.055 64.7443C131.828 64.3409 131.513 64.0256 131.109 63.7983C130.712 63.5653 130.249 63.4489 129.72 63.4489C129.169 63.4489 128.68 63.5767 128.254 63.8324C127.834 64.0824 127.504 64.4205 127.266 64.8466C127.027 65.267 126.905 65.7358 126.899 66.2528V68.392C126.899 69.0398 127.018 69.5994 127.257 70.071C127.501 70.5426 127.845 70.9062 128.288 71.1619C128.732 71.4176 129.257 71.5455 129.865 71.5455C130.268 71.5455 130.638 71.4886 130.973 71.375C131.308 71.2614 131.595 71.0909 131.834 70.8636C132.072 70.6364 132.254 70.358 132.379 70.0284L135.737 70.25C135.567 71.0568 135.217 71.7614 134.689 72.3636C134.166 72.9602 133.49 73.4261 132.661 73.7614C131.837 74.0909 130.885 74.2557 129.805 74.2557ZM149.075 64.642L145.751 64.8466C145.695 64.5625 145.572 64.3068 145.385 64.0795C145.197 63.8466 144.95 63.6619 144.643 63.5256C144.342 63.3835 143.982 63.3125 143.561 63.3125C142.999 63.3125 142.524 63.4318 142.138 63.6705C141.751 63.9034 141.558 64.2159 141.558 64.608C141.558 64.9205 141.683 65.1847 141.933 65.4006C142.183 65.6165 142.612 65.7898 143.22 65.9205L145.589 66.3977C146.862 66.6591 147.811 67.0795 148.436 67.6591C149.061 68.2386 149.374 69 149.374 69.9432C149.374 70.8011 149.121 71.554 148.615 72.2017C148.115 72.8494 147.428 73.3551 146.553 73.7188C145.683 74.0767 144.68 74.2557 143.544 74.2557C141.811 74.2557 140.43 73.8949 139.402 73.1733C138.379 72.446 137.78 71.4574 137.604 70.2074L141.175 70.0199C141.283 70.5483 141.544 70.9517 141.959 71.2301C142.374 71.5028 142.905 71.6392 143.553 71.6392C144.189 71.6392 144.7 71.517 145.087 71.2727C145.479 71.0227 145.678 70.7017 145.683 70.3097C145.678 69.9801 145.538 69.7102 145.266 69.5C144.993 69.2841 144.572 69.1193 144.004 69.0057L141.737 68.554C140.459 68.2983 139.507 67.8551 138.882 67.2244C138.263 66.5937 137.953 65.7898 137.953 64.8125C137.953 63.9716 138.18 63.2472 138.635 62.6392C139.095 62.0312 139.74 61.5625 140.57 61.233C141.405 60.9034 142.382 60.7386 143.501 60.7386C145.155 60.7386 146.456 61.0881 147.405 61.7869C148.359 62.4858 148.916 63.4375 149.075 64.642ZM151.66 78.9091V60.9091H155.239V63.108H155.401C155.56 62.7557 155.79 62.3977 156.092 62.0341C156.398 61.6648 156.796 61.358 157.285 61.1136C157.779 60.8636 158.393 60.7386 159.126 60.7386C160.08 60.7386 160.961 60.9886 161.768 61.4886C162.575 61.983 163.219 62.7301 163.702 63.7301C164.185 64.7244 164.427 65.9716 164.427 67.4716C164.427 68.9318 164.191 70.1648 163.719 71.1705C163.254 72.1705 162.617 72.929 161.81 73.446C161.009 73.9574 160.112 74.2131 159.117 74.2131C158.413 74.2131 157.813 74.0966 157.319 73.8636C156.83 73.6307 156.43 73.3381 156.117 72.9858C155.805 72.6278 155.566 72.267 155.401 71.9034H155.29V78.9091H151.66ZM155.214 67.4545C155.214 68.233 155.322 68.9119 155.538 69.4915C155.754 70.071 156.066 70.5227 156.475 70.8466C156.884 71.1648 157.381 71.3239 157.967 71.3239C158.558 71.3239 159.058 71.1619 159.467 70.8381C159.876 70.5085 160.185 70.054 160.396 69.4744C160.612 68.8892 160.719 68.2159 160.719 67.4545C160.719 66.6989 160.614 66.0341 160.404 65.4602C160.194 64.8864 159.884 64.4375 159.475 64.1136C159.066 63.7898 158.563 63.6278 157.967 63.6278C157.376 63.6278 156.876 63.7841 156.467 64.0966C156.063 64.4091 155.754 64.8523 155.538 65.4261C155.322 66 155.214 66.6761 155.214 67.4545ZM172.813 74.2557C171.467 74.2557 170.308 73.983 169.336 73.4375C168.37 72.8864 167.626 72.108 167.103 71.1023C166.58 70.0909 166.319 68.8949 166.319 67.5142C166.319 66.1676 166.58 64.9858 167.103 63.9688C167.626 62.9517 168.362 62.1591 169.31 61.5909C170.265 61.0227 171.384 60.7386 172.668 60.7386C173.532 60.7386 174.336 60.8778 175.08 61.1562C175.83 61.429 176.484 61.8409 177.04 62.392C177.603 62.9432 178.04 63.6364 178.353 64.4716C178.665 65.3011 178.822 66.2727 178.822 67.3864V68.3835H167.768V66.1335H175.404C175.404 65.6108 175.29 65.1477 175.063 64.7443C174.836 64.3409 174.521 64.0256 174.117 63.7983C173.719 63.5653 173.256 63.4489 172.728 63.4489C172.177 63.4489 171.688 63.5767 171.262 63.8324C170.842 64.0824 170.512 64.4205 170.273 64.8466C170.035 65.267 169.913 65.7358 169.907 66.2528V68.392C169.907 69.0398 170.026 69.5994 170.265 70.071C170.509 70.5426 170.853 70.9062 171.296 71.1619C171.739 71.4176 172.265 71.5455 172.873 71.5455C173.276 71.5455 173.646 71.4886 173.981 71.375C174.316 71.2614 174.603 71.0909 174.842 70.8636C175.08 70.6364 175.262 70.358 175.387 70.0284L178.745 70.25C178.575 71.0568 178.225 71.7614 177.697 72.3636C177.174 72.9602 176.498 73.4261 175.668 73.7614C174.844 74.0909 173.893 74.2557 172.813 74.2557ZM187.106 74.2557C185.765 74.2557 184.612 73.9716 183.646 73.4034C182.685 72.8295 181.947 72.0341 181.43 71.017C180.918 70 180.663 68.8295 180.663 67.5057C180.663 66.1648 180.921 64.9886 181.438 63.9773C181.961 62.9602 182.702 62.1676 183.663 61.5994C184.623 61.0256 185.765 60.7386 187.089 60.7386C188.231 60.7386 189.231 60.946 190.089 61.3608C190.947 61.7756 191.626 62.358 192.126 63.108C192.626 63.858 192.901 64.7386 192.952 65.75H189.526C189.43 65.0966 189.174 64.571 188.759 64.1733C188.35 63.7699 187.813 63.5682 187.148 63.5682C186.586 63.5682 186.094 63.7216 185.674 64.0284C185.259 64.3295 184.935 64.7699 184.702 65.3494C184.469 65.929 184.353 66.6307 184.353 67.4545C184.353 68.2898 184.467 69 184.694 69.5852C184.927 70.1705 185.254 70.6165 185.674 70.9233C186.094 71.2301 186.586 71.3835 187.148 71.3835C187.563 71.3835 187.935 71.2983 188.265 71.1278C188.6 70.9574 188.876 70.7102 189.092 70.3864C189.313 70.0568 189.458 69.6619 189.526 69.2017H192.952C192.896 70.2017 192.623 71.0824 192.134 71.8438C191.651 72.5994 190.984 73.1903 190.131 73.6165C189.279 74.0426 188.271 74.2557 187.106 74.2557ZM195.277 74V60.9091H198.908V74H195.277ZM197.101 59.2216C196.561 59.2216 196.098 59.0426 195.712 58.6847C195.331 58.321 195.141 57.8864 195.141 57.3807C195.141 56.8807 195.331 56.4517 195.712 56.0938C196.098 55.7301 196.561 55.5483 197.101 55.5483C197.641 55.5483 198.101 55.7301 198.482 56.0938C198.868 56.4517 199.061 56.8807 199.061 57.3807C199.061 57.8864 198.868 58.321 198.482 58.6847C198.101 59.0426 197.641 59.2216 197.101 59.2216ZM205.549 74.2472C204.714 74.2472 203.969 74.1023 203.316 73.8125C202.663 73.517 202.146 73.0824 201.765 72.5085C201.39 71.929 201.202 71.2074 201.202 70.3438C201.202 69.6165 201.336 69.0057 201.603 68.5114C201.87 68.017 202.234 67.6193 202.694 67.3182C203.154 67.017 203.677 66.7898 204.262 66.6364C204.853 66.483 205.472 66.375 206.12 66.3125C206.881 66.233 207.495 66.1591 207.961 66.0909C208.427 66.017 208.765 65.9091 208.975 65.767C209.185 65.625 209.29 65.4148 209.29 65.1364V65.0852C209.29 64.5455 209.12 64.1278 208.779 63.8324C208.444 63.5369 207.967 63.3892 207.347 63.3892C206.694 63.3892 206.174 63.5341 205.788 63.8239C205.401 64.108 205.146 64.4659 205.021 64.8977L201.663 64.625C201.833 63.8295 202.168 63.142 202.668 62.5625C203.168 61.9773 203.813 61.5284 204.603 61.2159C205.398 60.8977 206.319 60.7386 207.364 60.7386C208.092 60.7386 208.788 60.8239 209.452 60.9943C210.123 61.1648 210.717 61.429 211.234 61.7869C211.756 62.1449 212.168 62.6051 212.469 63.1676C212.771 63.7244 212.921 64.392 212.921 65.1705V74H209.478V72.1847H209.376C209.165 72.5938 208.884 72.9545 208.532 73.267C208.18 73.5739 207.756 73.8153 207.262 73.9915C206.768 74.1619 206.197 74.2472 205.549 74.2472ZM206.589 71.7415C207.123 71.7415 207.594 71.6364 208.004 71.4261C208.413 71.2102 208.734 70.9205 208.967 70.5568C209.2 70.1932 209.316 69.7812 209.316 69.321V67.9318C209.202 68.0057 209.046 68.0739 208.847 68.1364C208.654 68.1932 208.435 68.2472 208.191 68.2983C207.947 68.3437 207.702 68.3864 207.458 68.4261C207.214 68.4602 206.992 68.4915 206.793 68.5199C206.367 68.5824 205.995 68.6818 205.677 68.8182C205.359 68.9545 205.112 69.1392 204.935 69.3722C204.759 69.5994 204.671 69.8835 204.671 70.2244C204.671 70.7188 204.85 71.0966 205.208 71.358C205.572 71.6136 206.032 71.7415 206.589 71.7415ZM219.369 56.5455V74H215.738V56.5455H219.369ZM232.656 74.2131C231.661 74.2131 230.761 73.9574 229.954 73.446C229.153 72.929 228.516 72.1705 228.045 71.1705C227.579 70.1648 227.346 68.9318 227.346 67.4716C227.346 65.9716 227.587 64.7244 228.07 63.7301C228.553 62.7301 229.195 61.983 229.996 61.4886C230.803 60.9886 231.687 60.7386 232.647 60.7386C233.38 60.7386 233.991 60.8636 234.479 61.1136C234.974 61.358 235.371 61.6648 235.673 62.0341C235.979 62.3977 236.212 62.7557 236.371 63.108H236.482V56.5455H240.104V74H236.525V71.9034H236.371C236.201 72.267 235.96 72.6278 235.647 72.9858C235.34 73.3381 234.94 73.6307 234.445 73.8636C233.957 74.0966 233.36 74.2131 232.656 74.2131ZM233.806 71.3239C234.391 71.3239 234.886 71.1648 235.289 70.8466C235.698 70.5227 236.011 70.071 236.227 69.4915C236.448 68.9119 236.559 68.233 236.559 67.4545C236.559 66.6761 236.451 66 236.235 65.4261C236.019 64.8523 235.707 64.4091 235.298 64.0966C234.888 63.7841 234.391 63.6278 233.806 63.6278C233.21 63.6278 232.707 63.7898 232.298 64.1136C231.888 64.4375 231.579 64.8864 231.369 65.4602C231.158 66.0341 231.053 66.6989 231.053 67.4545C231.053 68.2159 231.158 68.8892 231.369 69.4744C231.585 70.054 231.894 70.5085 232.298 70.8381C232.707 71.1619 233.21 71.3239 233.806 71.3239ZM249.055 74.2557C247.709 74.2557 246.55 73.983 245.578 73.4375C244.612 72.8864 243.868 72.108 243.345 71.1023C242.822 70.0909 242.561 68.8949 242.561 67.5142C242.561 66.1676 242.822 64.9858 243.345 63.9688C243.868 62.9517 244.604 62.1591 245.553 61.5909C246.507 61.0227 247.626 60.7386 248.911 60.7386C249.774 60.7386 250.578 60.8778 251.322 61.1562C252.072 61.429 252.726 61.8409 253.283 62.392C253.845 62.9432 254.283 63.6364 254.595 64.4716C254.908 65.3011 255.064 66.2727 255.064 67.3864V68.3835H244.01V66.1335H251.646C251.646 65.6108 251.533 65.1477 251.305 64.7443C251.078 64.3409 250.763 64.0256 250.359 63.7983C249.962 63.5653 249.499 63.4489 248.97 63.4489C248.419 63.4489 247.93 63.5767 247.504 63.8324C247.084 64.0824 246.754 64.4205 246.516 64.8466C246.277 65.267 246.155 65.7358 246.149 66.2528V68.392C246.149 69.0398 246.268 69.5994 246.507 70.071C246.751 70.5426 247.095 70.9062 247.538 71.1619C247.982 71.4176 248.507 71.5455 249.115 71.5455C249.518 71.5455 249.888 71.4886 250.223 71.375C250.558 71.2614 250.845 71.0909 251.084 70.8636C251.322 70.6364 251.504 70.358 251.629 70.0284L254.987 70.25C254.817 71.0568 254.467 71.7614 253.939 72.3636C253.416 72.9602 252.74 73.4261 251.911 73.7614C251.087 74.0909 250.135 74.2557 249.055 74.2557ZM266.721 74.2472C265.886 74.2472 265.141 74.1023 264.488 73.8125C263.835 73.517 263.317 73.0824 262.937 72.5085C262.562 71.929 262.374 71.2074 262.374 70.3438C262.374 69.6165 262.508 69.0057 262.775 68.5114C263.042 68.017 263.406 67.6193 263.866 67.3182C264.326 67.017 264.849 66.7898 265.434 66.6364C266.025 66.483 266.644 66.375 267.292 66.3125C268.053 66.233 268.667 66.1591 269.133 66.0909C269.599 66.017 269.937 65.9091 270.147 65.767C270.357 65.625 270.462 65.4148 270.462 65.1364V65.0852C270.462 64.5455 270.292 64.1278 269.951 63.8324C269.616 63.5369 269.138 63.3892 268.519 63.3892C267.866 63.3892 267.346 63.5341 266.96 63.8239C266.573 64.108 266.317 64.4659 266.192 64.8977L262.835 64.625C263.005 63.8295 263.34 63.142 263.84 62.5625C264.34 61.9773 264.985 61.5284 265.775 61.2159C266.57 60.8977 267.491 60.7386 268.536 60.7386C269.263 60.7386 269.96 60.8239 270.624 60.9943C271.295 61.1648 271.888 61.429 272.406 61.7869C272.928 62.1449 273.34 62.6051 273.641 63.1676C273.942 63.7244 274.093 64.392 274.093 65.1705V74H270.65V72.1847H270.548C270.337 72.5938 270.056 72.9545 269.704 73.267C269.352 73.5739 268.928 73.8153 268.434 73.9915C267.94 74.1619 267.369 74.2472 266.721 74.2472ZM267.761 71.7415C268.295 71.7415 268.766 71.6364 269.175 71.4261C269.585 71.2102 269.906 70.9205 270.138 70.5568C270.371 70.1932 270.488 69.7812 270.488 69.321V67.9318C270.374 68.0057 270.218 68.0739 270.019 68.1364C269.826 68.1932 269.607 68.2472 269.363 68.2983C269.119 68.3437 268.874 68.3864 268.63 68.4261C268.386 68.4602 268.164 68.4915 267.965 68.5199C267.539 68.5824 267.167 68.6818 266.849 68.8182C266.531 68.9545 266.283 69.1392 266.107 69.3722C265.931 69.5994 265.843 69.8835 265.843 70.2244C265.843 70.7188 266.022 71.0966 266.38 71.358C266.744 71.6136 267.204 71.7415 267.761 71.7415ZM281.734 74.2131C280.739 74.2131 279.839 73.9574 279.032 73.446C278.231 72.929 277.594 72.1705 277.123 71.1705C276.657 70.1648 276.424 68.9318 276.424 67.4716C276.424 65.9716 276.665 64.7244 277.148 63.7301C277.631 62.7301 278.273 61.983 279.075 61.4886C279.881 60.9886 280.765 60.7386 281.725 60.7386C282.458 60.7386 283.069 60.8636 283.558 61.1136C284.052 61.358 284.45 61.6648 284.751 62.0341C285.058 62.3977 285.29 62.7557 285.45 63.108H285.56V56.5455H289.183V74H285.603V71.9034H285.45C285.279 72.267 285.038 72.6278 284.725 72.9858C284.418 73.3381 284.018 73.6307 283.523 73.8636C283.035 74.0966 282.438 74.2131 281.734 74.2131ZM282.884 71.3239C283.469 71.3239 283.964 71.1648 284.367 70.8466C284.776 70.5227 285.089 70.071 285.305 69.4915C285.526 68.9119 285.637 68.233 285.637 67.4545C285.637 66.6761 285.529 66 285.313 65.4261C285.097 64.8523 284.785 64.4091 284.376 64.0966C283.967 63.7841 283.469 63.6278 282.884 63.6278C282.288 63.6278 281.785 63.7898 281.376 64.1136C280.967 64.4375 280.657 64.8864 280.447 65.4602C280.237 66.0341 280.131 66.6989 280.131 67.4545C280.131 68.2159 280.237 68.8892 280.447 69.4744C280.663 70.054 280.972 70.5085 281.376 70.8381C281.785 71.1619 282.288 71.3239 282.884 71.3239ZM292.168 74V60.9091H295.628V63.2188H295.781C296.054 62.4517 296.509 61.8466 297.145 61.4034C297.781 60.9602 298.543 60.7386 299.429 60.7386C300.327 60.7386 301.091 60.9631 301.722 61.4119C302.352 61.8551 302.773 62.4574 302.983 63.2188H303.119C303.386 62.4688 303.869 61.8693 304.568 61.4205C305.273 60.9659 306.105 60.7386 307.065 60.7386C308.287 60.7386 309.278 61.1278 310.04 61.9062C310.807 62.679 311.19 63.7756 311.19 65.196V74H307.568V65.9119C307.568 65.1847 307.375 64.6392 306.989 64.2756C306.602 63.9119 306.119 63.7301 305.54 63.7301C304.881 63.7301 304.366 63.9403 303.997 64.3608C303.628 64.7756 303.443 65.3239 303.443 66.0057V74H299.923V65.8352C299.923 65.1932 299.739 64.6818 299.369 64.3011C299.006 63.9205 298.526 63.7301 297.929 63.7301C297.526 63.7301 297.162 63.8324 296.838 64.0369C296.52 64.2358 296.267 64.517 296.08 64.8807C295.892 65.2386 295.798 65.6591 295.798 66.142V74H292.168ZM314.058 74V60.9091H317.689V74H314.058ZM315.882 59.2216C315.342 59.2216 314.879 59.0426 314.493 58.6847C314.112 58.321 313.922 57.8864 313.922 57.3807C313.922 56.8807 314.112 56.4517 314.493 56.0938C314.879 55.7301 315.342 55.5483 315.882 55.5483C316.422 55.5483 316.882 55.7301 317.263 56.0938C317.649 56.4517 317.842 56.8807 317.842 57.3807C317.842 57.8864 317.649 58.321 317.263 58.6847C316.882 59.0426 316.422 59.2216 315.882 59.2216ZM331.489 64.642L328.165 64.8466C328.109 64.5625 327.987 64.3068 327.799 64.0795C327.612 63.8466 327.364 63.6619 327.058 63.5256C326.756 63.3835 326.396 63.3125 325.975 63.3125C325.413 63.3125 324.938 63.4318 324.552 63.6705C324.165 63.9034 323.972 64.2159 323.972 64.608C323.972 64.9205 324.097 65.1847 324.347 65.4006C324.597 65.6165 325.026 65.7898 325.634 65.9205L328.004 66.3977C329.276 66.6591 330.225 67.0795 330.85 67.6591C331.475 68.2386 331.788 69 331.788 69.9432C331.788 70.8011 331.535 71.554 331.029 72.2017C330.529 72.8494 329.842 73.3551 328.967 73.7188C328.097 74.0767 327.094 74.2557 325.958 74.2557C324.225 74.2557 322.844 73.8949 321.816 73.1733C320.793 72.446 320.194 71.4574 320.018 70.2074L323.589 70.0199C323.697 70.5483 323.958 70.9517 324.373 71.2301C324.788 71.5028 325.319 71.6392 325.967 71.6392C326.603 71.6392 327.114 71.517 327.501 71.2727C327.893 71.0227 328.092 70.7017 328.097 70.3097C328.092 69.9801 327.952 69.7102 327.68 69.5C327.407 69.2841 326.987 69.1193 326.418 69.0057L324.151 68.554C322.873 68.2983 321.921 67.8551 321.296 67.2244C320.677 66.5937 320.367 65.7898 320.367 64.8125C320.367 63.9716 320.594 63.2472 321.049 62.6392C321.509 62.0312 322.154 61.5625 322.984 61.233C323.819 60.9034 324.796 60.7386 325.915 60.7386C327.569 60.7386 328.87 61.0881 329.819 61.7869C330.773 62.4858 331.33 63.4375 331.489 64.642ZM334.074 74V60.9091H337.705V74H334.074ZM335.898 59.2216C335.358 59.2216 334.895 59.0426 334.509 58.6847C334.128 58.321 333.938 57.8864 333.938 57.3807C333.938 56.8807 334.128 56.4517 334.509 56.0938C334.895 55.7301 335.358 55.5483 335.898 55.5483C336.438 55.5483 336.898 55.7301 337.278 56.0938C337.665 56.4517 337.858 56.8807 337.858 57.3807C337.858 57.8864 337.665 58.321 337.278 58.6847C336.898 59.0426 336.438 59.2216 335.898 59.2216ZM346.528 74.2557C345.204 74.2557 344.059 73.9744 343.093 73.4119C342.133 72.8437 341.391 72.054 340.869 71.0426C340.346 70.0256 340.085 68.8466 340.085 67.5057C340.085 66.1534 340.346 64.9716 340.869 63.9602C341.391 62.9432 342.133 62.1534 343.093 61.5909C344.059 61.0227 345.204 60.7386 346.528 60.7386C347.852 60.7386 348.994 61.0227 349.954 61.5909C350.92 62.1534 351.664 62.9432 352.187 63.9602C352.71 64.9716 352.971 66.1534 352.971 67.5057C352.971 68.8466 352.71 70.0256 352.187 71.0426C351.664 72.054 350.92 72.8437 349.954 73.4119C348.994 73.9744 347.852 74.2557 346.528 74.2557ZM346.545 71.4432C347.147 71.4432 347.65 71.2727 348.053 70.9318C348.457 70.5852 348.761 70.1136 348.965 69.517C349.175 68.9205 349.281 68.2415 349.281 67.4801C349.281 66.7188 349.175 66.0398 348.965 65.4432C348.761 64.8466 348.457 64.375 348.053 64.0284C347.65 63.6818 347.147 63.5085 346.545 63.5085C345.937 63.5085 345.425 63.6818 345.011 64.0284C344.602 64.375 344.292 64.8466 344.082 65.4432C343.877 66.0398 343.775 66.7188 343.775 67.4801C343.775 68.2415 343.877 68.9205 344.082 69.517C344.292 70.1136 344.602 70.5852 345.011 70.9318C345.425 71.2727 345.937 71.4432 346.545 71.4432ZM345.224 59.2216L347.031 55.3438H350.388L347.789 59.2216H345.224ZM358.962 66.4318V74H355.332V60.9091H358.792V63.2188H358.945C359.235 62.4574 359.721 61.8551 360.403 61.4119C361.085 60.9631 361.911 60.7386 362.883 60.7386C363.792 60.7386 364.585 60.9375 365.261 61.3352C365.937 61.733 366.462 62.3011 366.837 63.0398C367.212 63.7727 367.4 64.6477 367.4 65.6648V74H363.769V66.3125C363.775 65.5114 363.57 64.8864 363.156 64.4375C362.741 63.983 362.17 63.7557 361.442 63.7557C360.954 63.7557 360.522 63.8608 360.147 64.071C359.778 64.2812 359.488 64.5881 359.278 64.9915C359.073 65.3892 358.968 65.8693 358.962 66.4318ZM378.058 78.9091C377.597 78.9091 377.165 78.8722 376.762 78.7983C376.364 78.7301 376.035 78.642 375.773 78.5341L376.592 75.8239C377.018 75.9545 377.401 76.0256 377.742 76.0369C378.089 76.0483 378.387 75.9688 378.637 75.7983C378.893 75.6278 379.1 75.3381 379.259 74.929L379.472 74.375L374.776 60.9091H378.594L381.305 70.5227H381.441L384.177 60.9091H388.021L382.933 75.4148C382.688 76.1193 382.356 76.733 381.935 77.2557C381.521 77.7841 380.995 78.1903 380.359 78.4744C379.722 78.7642 378.955 78.9091 378.058 78.9091Z" fill="#D0F4EE"/>
<path d="M4.44886 103V89.9091H7.90909V92.2188H8.0625C8.33523 91.4517 8.78977 90.8466 9.42614 90.4034C10.0625 89.9602 10.8239 89.7386 11.7102 89.7386C12.608 89.7386 13.3722 89.9631 14.0028 90.4119C14.6335 90.8551 15.054 91.4574 15.2642 92.2188H15.4006C15.6676 91.4688 16.1506 90.8693 16.8494 90.4205C17.554 89.9659 18.3864 89.7386 19.3466 89.7386C20.5682 89.7386 21.5597 90.1278 22.321 90.9062C23.0881 91.679 23.4716 92.7756 23.4716 94.196V103H19.8494V94.9119C19.8494 94.1847 19.6563 93.6392 19.2699 93.2756C18.8835 92.9119 18.4006 92.7301 17.821 92.7301C17.1619 92.7301 16.6477 92.9403 16.2784 93.3608C15.9091 93.7756 15.7244 94.3239 15.7244 95.0057V103H12.2045V94.8352C12.2045 94.1932 12.0199 93.6818 11.6506 93.3011C11.2869 92.9205 10.8068 92.7301 10.2102 92.7301C9.80682 92.7301 9.44318 92.8324 9.11932 93.0369C8.80114 93.2358 8.5483 93.517 8.3608 93.8807C8.1733 94.2386 8.07955 94.6591 8.07955 95.142V103H4.44886ZM32.2543 103.256C30.9304 103.256 29.7855 102.974 28.8196 102.412C27.8594 101.844 27.1179 101.054 26.5952 100.043C26.0724 99.0256 25.8111 97.8466 25.8111 96.5057C25.8111 95.1534 26.0724 93.9716 26.5952 92.9602C27.1179 91.9432 27.8594 91.1534 28.8196 90.5909C29.7855 90.0227 30.9304 89.7386 32.2543 89.7386C33.5781 89.7386 34.7202 90.0227 35.6804 90.5909C36.6463 91.1534 37.3906 91.9432 37.9134 92.9602C38.4361 93.9716 38.6974 95.1534 38.6974 96.5057C38.6974 97.8466 38.4361 99.0256 37.9134 100.043C37.3906 101.054 36.6463 101.844 35.6804 102.412C34.7202 102.974 33.5781 103.256 32.2543 103.256ZM32.2713 100.443C32.8736 100.443 33.3764 100.273 33.7798 99.9318C34.1832 99.5852 34.4872 99.1136 34.6918 98.517C34.902 97.9205 35.0071 97.2415 35.0071 96.4801C35.0071 95.7188 34.902 95.0398 34.6918 94.4432C34.4872 93.8466 34.1832 93.375 33.7798 93.0284C33.3764 92.6818 32.8736 92.5085 32.2713 92.5085C31.6634 92.5085 31.152 92.6818 30.7372 93.0284C30.3281 93.375 30.0185 93.8466 29.8082 94.4432C29.6037 95.0398 29.5014 95.7188 29.5014 96.4801C29.5014 97.2415 29.6037 97.9205 29.8082 98.517C30.0185 99.1136 30.3281 99.5852 30.7372 99.9318C31.152 100.273 31.6634 100.443 32.2713 100.443ZM52.8409 89.9091L48.2642 103H44.1733L39.5966 89.9091H43.4318L46.1506 99.2756H46.2869L48.9972 89.9091H52.8409ZM54.6989 103V89.9091H58.3295V103H54.6989ZM56.5227 88.2216C55.983 88.2216 55.5199 88.0426 55.1335 87.6847C54.7528 87.321 54.5625 86.8864 54.5625 86.3807C54.5625 85.8807 54.7528 85.4517 55.1335 85.0938C55.5199 84.7301 55.983 84.5483 56.5227 84.5483C57.0625 84.5483 57.5227 84.7301 57.9034 85.0938C58.2898 85.4517 58.483 85.8807 58.483 86.3807C58.483 86.8864 58.2898 87.321 57.9034 87.6847C57.5227 88.0426 57.0625 88.2216 56.5227 88.2216ZM64.8686 85.5455V103H61.2379V85.5455H64.8686ZM67.777 103V89.9091H71.4077V103H67.777ZM69.6009 88.2216C69.0611 88.2216 68.598 88.0426 68.2116 87.6847C67.831 87.321 67.6406 86.8864 67.6406 86.3807C67.6406 85.8807 67.831 85.4517 68.2116 85.0938C68.598 84.7301 69.0611 84.5483 69.6009 84.5483C70.1406 84.5483 70.6009 84.7301 70.9815 85.0938C71.3679 85.4517 71.5611 85.8807 71.5611 86.3807C71.5611 86.8864 71.3679 87.321 70.9815 87.6847C70.6009 88.0426 70.1406 88.2216 69.6009 88.2216ZM79.1399 103.213C78.1456 103.213 77.245 102.957 76.4382 102.446C75.6371 101.929 75.0007 101.17 74.5291 100.17C74.0632 99.1648 73.8303 97.9318 73.8303 96.4716C73.8303 94.9716 74.0717 93.7244 74.5547 92.7301C75.0376 91.7301 75.6797 90.983 76.4808 90.4886C77.2876 89.9886 78.1712 89.7386 79.1314 89.7386C79.8643 89.7386 80.4751 89.8636 80.9638 90.1136C81.4581 90.358 81.8558 90.6648 82.157 91.0341C82.4638 91.3977 82.6967 91.7557 82.8558 92.108H82.9666V85.5455H86.5888V103H83.0092V100.903H82.8558C82.6854 101.267 82.4439 101.628 82.1314 101.986C81.8246 102.338 81.424 102.631 80.9297 102.864C80.4411 103.097 79.8445 103.213 79.1399 103.213ZM80.2905 100.324C80.8757 100.324 81.37 100.165 81.7734 99.8466C82.1825 99.5227 82.495 99.071 82.7109 98.4915C82.9325 97.9119 83.0433 97.233 83.0433 96.4545C83.0433 95.6761 82.9354 95 82.7195 94.4261C82.5036 93.8523 82.1911 93.4091 81.782 93.0966C81.3729 92.7841 80.8757 92.6278 80.2905 92.6278C79.6939 92.6278 79.1911 92.7898 78.782 93.1136C78.3729 93.4375 78.0632 93.8864 77.853 94.4602C77.6428 95.0341 77.5376 95.6989 77.5376 96.4545C77.5376 97.2159 77.6428 97.8892 77.853 98.4744C78.0689 99.054 78.3786 99.5085 78.782 99.8381C79.1911 100.162 79.6939 100.324 80.2905 100.324ZM93.3068 103.247C92.4716 103.247 91.7273 103.102 91.0739 102.812C90.4205 102.517 89.9034 102.082 89.5227 101.509C89.1477 100.929 88.9602 100.207 88.9602 99.3438C88.9602 98.6165 89.0938 98.0057 89.3608 97.5114C89.6278 97.017 89.9915 96.6193 90.4517 96.3182C90.9119 96.017 91.4347 95.7898 92.0199 95.6364C92.6108 95.483 93.2301 95.375 93.8778 95.3125C94.6392 95.233 95.2528 95.1591 95.7188 95.0909C96.1847 95.017 96.5227 94.9091 96.733 94.767C96.9432 94.625 97.0483 94.4148 97.0483 94.1364V94.0852C97.0483 93.5455 96.8778 93.1278 96.5369 92.8324C96.2017 92.5369 95.7244 92.3892 95.1051 92.3892C94.4517 92.3892 93.9318 92.5341 93.5455 92.8239C93.1591 93.108 92.9034 93.4659 92.7784 93.8977L89.4205 93.625C89.5909 92.8295 89.9261 92.142 90.4261 91.5625C90.9261 90.9773 91.571 90.5284 92.3608 90.2159C93.1563 89.8977 94.0767 89.7386 95.1222 89.7386C95.8494 89.7386 96.5455 89.8239 97.2102 89.9943C97.8807 90.1648 98.4744 90.429 98.9915 90.7869C99.5142 91.1449 99.9261 91.6051 100.227 92.1676C100.528 92.7244 100.679 93.392 100.679 94.1705V103H97.2358V101.185H97.1335C96.9233 101.594 96.642 101.955 96.2898 102.267C95.9375 102.574 95.5142 102.815 95.0199 102.991C94.5256 103.162 93.9545 103.247 93.3068 103.247ZM94.3466 100.741C94.8807 100.741 95.3523 100.636 95.7614 100.426C96.1705 100.21 96.4915 99.9205 96.7244 99.5568C96.9574 99.1932 97.0739 98.7812 97.0739 98.321V96.9318C96.9602 97.0057 96.804 97.0739 96.6051 97.1364C96.4119 97.1932 96.1932 97.2472 95.9489 97.2983C95.7045 97.3437 95.4602 97.3864 95.2159 97.4261C94.9716 97.4602 94.75 97.4915 94.5511 97.5199C94.125 97.5824 93.7528 97.6818 93.4347 97.8182C93.1165 97.9545 92.8693 98.1392 92.6932 98.3722C92.517 98.5994 92.429 98.8835 92.429 99.2244C92.429 99.7188 92.608 100.097 92.9659 100.358C93.3295 100.614 93.7898 100.741 94.3466 100.741ZM108.32 103.213C107.325 103.213 106.425 102.957 105.618 102.446C104.817 101.929 104.18 101.17 103.709 100.17C103.243 99.1648 103.01 97.9318 103.01 96.4716C103.01 94.9716 103.251 93.7244 103.734 92.7301C104.217 91.7301 104.859 90.983 105.661 90.4886C106.467 89.9886 107.351 89.7386 108.311 89.7386C109.044 89.7386 109.655 89.8636 110.143 90.1136C110.638 90.358 111.036 90.6648 111.337 91.0341C111.643 91.3977 111.876 91.7557 112.036 92.108H112.146V85.5455H115.768V103H112.189V100.903H112.036C111.865 101.267 111.624 101.628 111.311 101.986C111.004 102.338 110.604 102.631 110.109 102.864C109.621 103.097 109.024 103.213 108.32 103.213ZM109.47 100.324C110.055 100.324 110.55 100.165 110.953 99.8466C111.362 99.5227 111.675 99.071 111.891 98.4915C112.112 97.9119 112.223 97.233 112.223 96.4545C112.223 95.6761 112.115 95 111.899 94.4261C111.683 93.8523 111.371 93.4091 110.962 93.0966C110.553 92.7841 110.055 92.6278 109.47 92.6278C108.874 92.6278 108.371 92.7898 107.962 93.1136C107.553 93.4375 107.243 93.8864 107.033 94.4602C106.822 95.0341 106.717 95.6989 106.717 96.4545C106.717 97.2159 106.822 97.8892 107.033 98.4744C107.249 99.054 107.558 99.5085 107.962 99.8381C108.371 100.162 108.874 100.324 109.47 100.324ZM128.041 103.247C127.206 103.247 126.462 103.102 125.808 102.812C125.155 102.517 124.638 102.082 124.257 101.509C123.882 100.929 123.695 100.207 123.695 99.3438C123.695 98.6165 123.828 98.0057 124.095 97.5114C124.362 97.017 124.726 96.6193 125.186 96.3182C125.646 96.017 126.169 95.7898 126.754 95.6364C127.345 95.483 127.964 95.375 128.612 95.3125C129.374 95.233 129.987 95.1591 130.453 95.0909C130.919 95.017 131.257 94.9091 131.467 94.767C131.678 94.625 131.783 94.4148 131.783 94.1364V94.0852C131.783 93.5455 131.612 93.1278 131.271 92.8324C130.936 92.5369 130.459 92.3892 129.839 92.3892C129.186 92.3892 128.666 92.5341 128.28 92.8239C127.893 93.108 127.638 93.4659 127.513 93.8977L124.155 93.625C124.325 92.8295 124.661 92.142 125.161 91.5625C125.661 90.9773 126.305 90.5284 127.095 90.2159C127.891 89.8977 128.811 89.7386 129.857 89.7386C130.584 89.7386 131.28 89.8239 131.945 89.9943C132.615 90.1648 133.209 90.429 133.726 90.7869C134.249 91.1449 134.661 91.6051 134.962 92.1676C135.263 92.7244 135.413 93.392 135.413 94.1705V103H131.97V101.185H131.868C131.658 101.594 131.376 101.955 131.024 102.267C130.672 102.574 130.249 102.815 129.754 102.991C129.26 103.162 128.689 103.247 128.041 103.247ZM129.081 100.741C129.615 100.741 130.087 100.636 130.496 100.426C130.905 100.21 131.226 99.9205 131.459 99.5568C131.692 99.1932 131.808 98.7812 131.808 98.321V96.9318C131.695 97.0057 131.538 97.0739 131.339 97.1364C131.146 97.1932 130.928 97.2472 130.683 97.2983C130.439 97.3437 130.195 97.3864 129.95 97.4261C129.706 97.4602 129.484 97.4915 129.286 97.5199C128.859 97.5824 128.487 97.6818 128.169 97.8182C127.851 97.9545 127.604 98.1392 127.428 98.3722C127.251 98.5994 127.163 98.8835 127.163 99.2244C127.163 99.7188 127.342 100.097 127.7 100.358C128.064 100.614 128.524 100.741 129.081 100.741ZM144.145 103.256C142.804 103.256 141.651 102.972 140.685 102.403C139.724 101.83 138.986 101.034 138.469 100.017C137.957 99 137.702 97.8295 137.702 96.5057C137.702 95.1648 137.96 93.9886 138.477 92.9773C139 91.9602 139.741 91.1676 140.702 90.5994C141.662 90.0256 142.804 89.7386 144.128 89.7386C145.27 89.7386 146.27 89.946 147.128 90.3608C147.986 90.7756 148.665 91.358 149.165 92.108C149.665 92.858 149.94 93.7386 149.991 94.75H146.565C146.469 94.0966 146.213 93.571 145.798 93.1733C145.389 92.7699 144.852 92.5682 144.188 92.5682C143.625 92.5682 143.134 92.7216 142.713 93.0284C142.298 93.3295 141.974 93.7699 141.741 94.3494C141.509 94.929 141.392 95.6307 141.392 96.4545C141.392 97.2898 141.506 98 141.733 98.5852C141.966 99.1705 142.293 99.6165 142.713 99.9233C143.134 100.23 143.625 100.384 144.188 100.384C144.602 100.384 144.974 100.298 145.304 100.128C145.639 99.9574 145.915 99.7102 146.131 99.3864C146.352 99.0568 146.497 98.6619 146.565 98.2017H149.991C149.935 99.2017 149.662 100.082 149.173 100.844C148.69 101.599 148.023 102.19 147.17 102.616C146.318 103.043 145.31 103.256 144.145 103.256ZM156.049 103.247C155.214 103.247 154.469 103.102 153.816 102.812C153.163 102.517 152.646 102.082 152.265 101.509C151.89 100.929 151.702 100.207 151.702 99.3438C151.702 98.6165 151.836 98.0057 152.103 97.5114C152.37 97.017 152.734 96.6193 153.194 96.3182C153.654 96.017 154.177 95.7898 154.762 95.6364C155.353 95.483 155.972 95.375 156.62 95.3125C157.381 95.233 157.995 95.1591 158.461 95.0909C158.927 95.017 159.265 94.9091 159.475 94.767C159.685 94.625 159.79 94.4148 159.79 94.1364V94.0852C159.79 93.5455 159.62 93.1278 159.279 92.8324C158.944 92.5369 158.467 92.3892 157.847 92.3892C157.194 92.3892 156.674 92.5341 156.288 92.8239C155.901 93.108 155.646 93.4659 155.521 93.8977L152.163 93.625C152.333 92.8295 152.668 92.142 153.168 91.5625C153.668 90.9773 154.313 90.5284 155.103 90.2159C155.898 89.8977 156.819 89.7386 157.864 89.7386C158.592 89.7386 159.288 89.8239 159.952 89.9943C160.623 90.1648 161.217 90.429 161.734 90.7869C162.256 91.1449 162.668 91.6051 162.969 92.1676C163.271 92.7244 163.421 93.392 163.421 94.1705V103H159.978V101.185H159.876C159.665 101.594 159.384 101.955 159.032 102.267C158.68 102.574 158.256 102.815 157.762 102.991C157.268 103.162 156.697 103.247 156.049 103.247ZM157.089 100.741C157.623 100.741 158.094 100.636 158.504 100.426C158.913 100.21 159.234 99.9205 159.467 99.5568C159.7 99.1932 159.816 98.7812 159.816 98.321V96.9318C159.702 97.0057 159.546 97.0739 159.347 97.1364C159.154 97.1932 158.935 97.2472 158.691 97.2983C158.447 97.3437 158.202 97.3864 157.958 97.4261C157.714 97.4602 157.492 97.4915 157.293 97.5199C156.867 97.5824 156.495 97.6818 156.177 97.8182C155.859 97.9545 155.612 98.1392 155.435 98.3722C155.259 98.5994 155.171 98.8835 155.171 99.2244C155.171 99.7188 155.35 100.097 155.708 100.358C156.072 100.614 156.532 100.741 157.089 100.741ZM171.062 103.213C170.067 103.213 169.167 102.957 168.36 102.446C167.559 101.929 166.923 101.17 166.451 100.17C165.985 99.1648 165.752 97.9318 165.752 96.4716C165.752 94.9716 165.994 93.7244 166.477 92.7301C166.96 91.7301 167.602 90.983 168.403 90.4886C169.21 89.9886 170.093 89.7386 171.053 89.7386C171.786 89.7386 172.397 89.8636 172.886 90.1136C173.38 90.358 173.778 90.6648 174.079 91.0341C174.386 91.3977 174.619 91.7557 174.778 92.108H174.888V85.5455H178.511V103H174.931V100.903H174.778C174.607 101.267 174.366 101.628 174.053 101.986C173.746 102.338 173.346 102.631 172.852 102.864C172.363 103.097 171.766 103.213 171.062 103.213ZM172.212 100.324C172.798 100.324 173.292 100.165 173.695 99.8466C174.104 99.5227 174.417 99.071 174.633 98.4915C174.854 97.9119 174.965 97.233 174.965 96.4545C174.965 95.6761 174.857 95 174.641 94.4261C174.425 93.8523 174.113 93.4091 173.704 93.0966C173.295 92.7841 172.798 92.6278 172.212 92.6278C171.616 92.6278 171.113 92.7898 170.704 93.1136C170.295 93.4375 169.985 93.8864 169.775 94.4602C169.565 95.0341 169.46 95.6989 169.46 96.4545C169.46 97.2159 169.565 97.8892 169.775 98.4744C169.991 99.054 170.3 99.5085 170.704 99.8381C171.113 100.162 171.616 100.324 172.212 100.324ZM187.462 103.256C186.115 103.256 184.956 102.983 183.984 102.438C183.018 101.886 182.274 101.108 181.751 100.102C181.229 99.0909 180.967 97.8949 180.967 96.5142C180.967 95.1676 181.229 93.9858 181.751 92.9688C182.274 91.9517 183.01 91.1591 183.959 90.5909C184.913 90.0227 186.033 89.7386 187.317 89.7386C188.18 89.7386 188.984 89.8778 189.729 90.1562C190.479 90.429 191.132 90.8409 191.689 91.392C192.251 91.9432 192.689 92.6364 193.001 93.4716C193.314 94.3011 193.47 95.2727 193.47 96.3864V97.3835H182.416V95.1335H190.053C190.053 94.6108 189.939 94.1477 189.712 93.7443C189.484 93.3409 189.169 93.0256 188.766 92.7983C188.368 92.5653 187.905 92.4489 187.376 92.4489C186.825 92.4489 186.337 92.5767 185.911 92.8324C185.49 93.0824 185.161 93.4205 184.922 93.8466C184.683 94.267 184.561 94.7358 184.555 95.2528V97.392C184.555 98.0398 184.675 98.5994 184.913 99.071C185.158 99.5426 185.501 99.9062 185.945 100.162C186.388 100.418 186.913 100.545 187.521 100.545C187.925 100.545 188.294 100.489 188.629 100.375C188.964 100.261 189.251 100.091 189.49 99.8636C189.729 99.6364 189.911 99.358 190.036 99.0284L193.393 99.25C193.223 100.057 192.874 100.761 192.345 101.364C191.822 101.96 191.146 102.426 190.317 102.761C189.493 103.091 188.541 103.256 187.462 103.256ZM185.928 88.2216L187.734 84.3438H191.092L188.493 88.2216H185.928ZM195.839 103V89.9091H199.3V92.2188H199.453C199.726 91.4517 200.18 90.8466 200.817 90.4034C201.453 89.9602 202.214 89.7386 203.101 89.7386C203.999 89.7386 204.763 89.9631 205.393 90.4119C206.024 90.8551 206.445 91.4574 206.655 92.2188H206.791C207.058 91.4688 207.541 90.8693 208.24 90.4205C208.945 89.9659 209.777 89.7386 210.737 89.7386C211.959 89.7386 212.95 90.1278 213.712 90.9062C214.479 91.679 214.862 92.7756 214.862 94.196V103H211.24V94.9119C211.24 94.1847 211.047 93.6392 210.661 93.2756C210.274 92.9119 209.791 92.7301 209.212 92.7301C208.553 92.7301 208.038 92.9403 207.669 93.3608C207.3 93.7756 207.115 94.3239 207.115 95.0057V103H203.595V94.8352C203.595 94.1932 203.411 93.6818 203.041 93.3011C202.678 92.9205 202.197 92.7301 201.601 92.7301C201.197 92.7301 200.834 92.8324 200.51 93.0369C200.192 93.2358 199.939 93.517 199.751 93.8807C199.564 94.2386 199.47 94.6591 199.47 95.142V103H195.839ZM217.73 103V89.9091H221.361V103H217.73ZM219.554 88.2216C219.014 88.2216 218.551 88.0426 218.165 87.6847C217.784 87.321 217.594 86.8864 217.594 86.3807C217.594 85.8807 217.784 85.4517 218.165 85.0938C218.551 84.7301 219.014 84.5483 219.554 84.5483C220.094 84.5483 220.554 84.7301 220.935 85.0938C221.321 85.4517 221.514 85.8807 221.514 86.3807C221.514 86.8864 221.321 87.321 220.935 87.6847C220.554 88.0426 220.094 88.2216 219.554 88.2216ZM230.184 103.256C228.843 103.256 227.69 102.972 226.724 102.403C225.763 101.83 225.025 101.034 224.508 100.017C223.996 99 223.741 97.8295 223.741 96.5057C223.741 95.1648 223.999 93.9886 224.516 92.9773C225.039 91.9602 225.781 91.1676 226.741 90.5994C227.701 90.0256 228.843 89.7386 230.167 89.7386C231.309 89.7386 232.309 89.946 233.167 90.3608C234.025 90.7756 234.704 91.358 235.204 92.108C235.704 92.858 235.979 93.7386 236.031 94.75H232.604C232.508 94.0966 232.252 93.571 231.837 93.1733C231.428 92.7699 230.891 92.5682 230.227 92.5682C229.664 92.5682 229.173 92.7216 228.752 93.0284C228.337 93.3295 228.013 93.7699 227.781 94.3494C227.548 94.929 227.431 95.6307 227.431 96.4545C227.431 97.2898 227.545 98 227.772 98.5852C228.005 99.1705 228.332 99.6165 228.752 99.9233C229.173 100.23 229.664 100.384 230.227 100.384C230.641 100.384 231.013 100.298 231.343 100.128C231.678 99.9574 231.954 99.7102 232.17 99.3864C232.391 99.0568 232.536 98.6619 232.604 98.2017H236.031C235.974 99.2017 235.701 100.082 235.212 100.844C234.729 101.599 234.062 102.19 233.21 102.616C232.357 103.043 231.349 103.256 230.184 103.256ZM242.088 103.247C241.253 103.247 240.509 103.102 239.855 102.812C239.202 102.517 238.685 102.082 238.304 101.509C237.929 100.929 237.741 100.207 237.741 99.3438C237.741 98.6165 237.875 98.0057 238.142 97.5114C238.409 97.017 238.773 96.6193 239.233 96.3182C239.693 96.017 240.216 95.7898 240.801 95.6364C241.392 95.483 242.011 95.375 242.659 95.3125C243.42 95.233 244.034 95.1591 244.5 95.0909C244.966 95.017 245.304 94.9091 245.514 94.767C245.724 94.625 245.83 94.4148 245.83 94.1364V94.0852C245.83 93.5455 245.659 93.1278 245.318 92.8324C244.983 92.5369 244.506 92.3892 243.886 92.3892C243.233 92.3892 242.713 92.5341 242.327 92.8239C241.94 93.108 241.685 93.4659 241.56 93.8977L238.202 93.625C238.372 92.8295 238.707 92.142 239.207 91.5625C239.707 90.9773 240.352 90.5284 241.142 90.2159C241.938 89.8977 242.858 89.7386 243.903 89.7386C244.631 89.7386 245.327 89.8239 245.991 89.9943C246.662 90.1648 247.256 90.429 247.773 90.7869C248.295 91.1449 248.707 91.6051 249.009 92.1676C249.31 92.7244 249.46 93.392 249.46 94.1705V103H246.017V101.185H245.915C245.705 101.594 245.423 101.955 245.071 102.267C244.719 102.574 244.295 102.815 243.801 102.991C243.307 103.162 242.736 103.247 242.088 103.247ZM243.128 100.741C243.662 100.741 244.134 100.636 244.543 100.426C244.952 100.21 245.273 99.9205 245.506 99.5568C245.739 99.1932 245.855 98.7812 245.855 98.321V96.9318C245.741 97.0057 245.585 97.0739 245.386 97.1364C245.193 97.1932 244.974 97.2472 244.73 97.2983C244.486 97.3437 244.241 97.3864 243.997 97.4261C243.753 97.4602 243.531 97.4915 243.332 97.5199C242.906 97.5824 242.534 97.6818 242.216 97.8182C241.898 97.9545 241.651 98.1392 241.474 98.3722C241.298 98.5994 241.21 98.8835 241.21 99.2244C241.21 99.7188 241.389 100.097 241.747 100.358C242.111 100.614 242.571 100.741 243.128 100.741Z" fill="#F9FFFE"/>
</svg>
